%TF.GenerationSoftware,KiCad,Pcbnew,9.0.0*%
%TF.CreationDate,2025-06-21T21:16:28+05:30*%
%TF.ProjectId,csa,6373612e-6b69-4636-9164-5f7063625858,rev?*%
%TF.SameCoordinates,Original*%
%TF.FileFunction,Soldermask,Top*%
%TF.FilePolarity,Negative*%
%FSLAX46Y46*%
G04 Gerber Fmt 4.6, Leading zero omitted, Abs format (unit mm)*
G04 Created by KiCad (PCBNEW 9.0.0) date 2025-06-21 21:16:28*
%MOMM*%
%LPD*%
G01*
G04 APERTURE LIST*
G04 Aperture macros list*
%AMRoundRect*
0 Rectangle with rounded corners*
0 $1 Rounding radius*
0 $2 $3 $4 $5 $6 $7 $8 $9 X,Y pos of 4 corners*
0 Add a 4 corners polygon primitive as box body*
4,1,4,$2,$3,$4,$5,$6,$7,$8,$9,$2,$3,0*
0 Add four circle primitives for the rounded corners*
1,1,$1+$1,$2,$3*
1,1,$1+$1,$4,$5*
1,1,$1+$1,$6,$7*
1,1,$1+$1,$8,$9*
0 Add four rect primitives between the rounded corners*
20,1,$1+$1,$2,$3,$4,$5,0*
20,1,$1+$1,$4,$5,$6,$7,0*
20,1,$1+$1,$6,$7,$8,$9,0*
20,1,$1+$1,$8,$9,$2,$3,0*%
G04 Aperture macros list end*
%ADD10RoundRect,0.225000X0.225000X0.250000X-0.225000X0.250000X-0.225000X-0.250000X0.225000X-0.250000X0*%
%ADD11RoundRect,0.250000X-0.325000X-0.650000X0.325000X-0.650000X0.325000X0.650000X-0.325000X0.650000X0*%
%ADD12RoundRect,0.087500X-0.425000X-0.087500X0.425000X-0.087500X0.425000X0.087500X-0.425000X0.087500X0*%
%ADD13RoundRect,0.087500X-0.087500X-0.425000X0.087500X-0.425000X0.087500X0.425000X-0.087500X0.425000X0*%
%ADD14R,3.150000X3.150000*%
%ADD15RoundRect,0.225000X-0.225000X-0.250000X0.225000X-0.250000X0.225000X0.250000X-0.225000X0.250000X0*%
%ADD16RoundRect,0.225000X-0.250000X0.225000X-0.250000X-0.225000X0.250000X-0.225000X0.250000X0.225000X0*%
%ADD17RoundRect,0.062500X-0.062500X0.425000X-0.062500X-0.425000X0.062500X-0.425000X0.062500X0.425000X0*%
%ADD18R,2.000000X1.200000*%
%ADD19RoundRect,0.200000X-0.200000X-0.275000X0.200000X-0.275000X0.200000X0.275000X-0.200000X0.275000X0*%
%ADD20RoundRect,0.250000X-0.450000X0.262500X-0.450000X-0.262500X0.450000X-0.262500X0.450000X0.262500X0*%
%ADD21RoundRect,0.225000X0.250000X-0.225000X0.250000X0.225000X-0.250000X0.225000X-0.250000X-0.225000X0*%
%ADD22R,1.700000X1.700000*%
%ADD23O,1.700000X1.700000*%
%ADD24RoundRect,0.200000X-0.275000X0.200000X-0.275000X-0.200000X0.275000X-0.200000X0.275000X0.200000X0*%
%ADD25RoundRect,0.250000X0.325000X0.650000X-0.325000X0.650000X-0.325000X-0.650000X0.325000X-0.650000X0*%
%ADD26RoundRect,0.150000X0.587500X0.150000X-0.587500X0.150000X-0.587500X-0.150000X0.587500X-0.150000X0*%
%ADD27RoundRect,0.218750X0.218750X0.381250X-0.218750X0.381250X-0.218750X-0.381250X0.218750X-0.381250X0*%
%ADD28RoundRect,0.200000X0.200000X0.275000X-0.200000X0.275000X-0.200000X-0.275000X0.200000X-0.275000X0*%
G04 APERTURE END LIST*
D10*
%TO.C,C1*%
X33500000Y-18500000D03*
X31950000Y-18500000D03*
%TD*%
D11*
%TO.C,C3*%
X35000000Y-43000000D03*
X37950000Y-43000000D03*
%TD*%
D12*
%TO.C,U2*%
X32637500Y-31950000D03*
X32637500Y-32600000D03*
X32637500Y-33250000D03*
X32637500Y-33900000D03*
X32637500Y-34550000D03*
D13*
X33700000Y-35612500D03*
X34350000Y-35612500D03*
X35000000Y-35612500D03*
X35650000Y-35612500D03*
X36300000Y-35612500D03*
D12*
X37362500Y-34550000D03*
X37362500Y-33900000D03*
X37362500Y-33250000D03*
X37362500Y-32600000D03*
X37362500Y-31950000D03*
D13*
X36300000Y-30887500D03*
X35650000Y-30887500D03*
X35000000Y-30887500D03*
X34350000Y-30887500D03*
X33700000Y-30887500D03*
D14*
X35000000Y-33250000D03*
%TD*%
D15*
%TO.C,C7*%
X34950000Y-39500000D03*
X36500000Y-39500000D03*
%TD*%
D16*
%TO.C,Cf1*%
X27000000Y-31500000D03*
X27000000Y-33050000D03*
%TD*%
D17*
%TO.C,U1*%
X24750000Y-31112500D03*
X24250000Y-31112500D03*
X23750000Y-31112500D03*
X23250000Y-31112500D03*
X23250000Y-33887500D03*
X23750000Y-33887500D03*
X24250000Y-33887500D03*
X24750000Y-33887500D03*
D18*
X24000000Y-32500000D03*
%TD*%
D19*
%TO.C,R4*%
X23000000Y-26500000D03*
X24650000Y-26500000D03*
%TD*%
%TO.C,R5*%
X23000000Y-38500000D03*
X24650000Y-38500000D03*
%TD*%
D20*
%TO.C,Rf1*%
X29000000Y-31500000D03*
X29000000Y-33325000D03*
%TD*%
D21*
%TO.C,C5*%
X21250000Y-33050000D03*
X21250000Y-31500000D03*
%TD*%
D22*
%TO.C,J2*%
X20420000Y-46500000D03*
D23*
X22960000Y-46500000D03*
X25500000Y-46500000D03*
%TD*%
D24*
%TO.C,R3*%
X28000000Y-38000000D03*
X28000000Y-39650000D03*
%TD*%
D25*
%TO.C,C6*%
X37000000Y-27000000D03*
X34050000Y-27000000D03*
%TD*%
D21*
%TO.C,C2*%
X28000000Y-43050000D03*
X28000000Y-41500000D03*
%TD*%
%TO.C,C4*%
X19500000Y-33050000D03*
X19500000Y-31500000D03*
%TD*%
D22*
%TO.C,J1*%
X19500000Y-23500000D03*
D23*
X19500000Y-20960000D03*
X19500000Y-18420000D03*
%TD*%
D26*
%TO.C,D1*%
X29000000Y-22000000D03*
X29000000Y-20100000D03*
X27125000Y-21050000D03*
%TD*%
D27*
%TO.C,L1*%
X36125000Y-23562500D03*
X34000000Y-23562500D03*
%TD*%
D28*
%TO.C,R2*%
X37400000Y-18500000D03*
X35750000Y-18500000D03*
%TD*%
%TO.C,R1*%
X24500000Y-21000000D03*
X22850000Y-21000000D03*
%TD*%
M02*
