%TF.GenerationSoftware,KiCad,Pcbnew,9.0.0*%
%TF.CreationDate,2025-06-21T21:16:28+05:30*%
%TF.ProjectId,csa,6373612e-6b69-4636-9164-5f7063625858,rev?*%
%TF.SameCoordinates,Original*%
%TF.FileFunction,Paste,Top*%
%TF.FilePolarity,Positive*%
%FSLAX46Y46*%
G04 Gerber Fmt 4.6, Leading zero omitted, Abs format (unit mm)*
G04 Created by KiCad (PCBNEW 9.0.0) date 2025-06-21 21:16:28*
%MOMM*%
%LPD*%
G01*
G04 APERTURE LIST*
G04 Aperture macros list*
%AMRoundRect*
0 Rectangle with rounded corners*
0 $1 Rounding radius*
0 $2 $3 $4 $5 $6 $7 $8 $9 X,Y pos of 4 corners*
0 Add a 4 corners polygon primitive as box body*
4,1,4,$2,$3,$4,$5,$6,$7,$8,$9,$2,$3,0*
0 Add four circle primitives for the rounded corners*
1,1,$1+$1,$2,$3*
1,1,$1+$1,$4,$5*
1,1,$1+$1,$6,$7*
1,1,$1+$1,$8,$9*
0 Add four rect primitives between the rounded corners*
20,1,$1+$1,$2,$3,$4,$5,0*
20,1,$1+$1,$4,$5,$6,$7,0*
20,1,$1+$1,$6,$7,$8,$9,0*
20,1,$1+$1,$8,$9,$2,$3,0*%
%AMFreePoly0*
4,1,19,0.178553,0.213392,0.221317,0.164040,0.231790,0.115895,0.231790,-0.012362,0.213392,-0.075020,0.197845,-0.094312,0.094312,-0.197845,0.036997,-0.229141,0.012362,-0.231790,-0.115895,-0.231790,-0.178553,-0.213392,-0.221317,-0.164040,-0.231790,-0.115895,-0.231790,0.115895,-0.213392,0.178553,-0.164040,0.221317,-0.115895,0.231790,0.115895,0.231790,0.178553,0.213392,0.178553,0.213392,
$1*%
%AMFreePoly1*
4,1,21,0.122595,0.381565,0.128518,0.376137,0.204814,0.299841,0.231439,0.242746,0.231789,0.234719,0.231789,-0.234719,0.210242,-0.293918,0.204814,-0.299841,0.128518,-0.376137,0.071423,-0.402762,0.063396,-0.403112,-0.139692,-0.403112,-0.198891,-0.381565,-0.230390,-0.327007,-0.231789,-0.311015,-0.231789,0.311015,-0.210242,0.370214,-0.155684,0.401713,-0.139692,0.403112,0.063396,0.403112,
0.122595,0.381565,0.122595,0.381565,$1*%
%AMFreePoly2*
4,1,19,0.075020,0.213392,0.094312,0.197845,0.197845,0.094312,0.229141,0.036997,0.231790,0.012362,0.231790,-0.115895,0.213392,-0.178553,0.164040,-0.221317,0.115895,-0.231790,-0.115895,-0.231790,-0.178553,-0.213392,-0.221317,-0.164040,-0.231790,-0.115895,-0.231790,0.115895,-0.213392,0.178553,-0.164040,0.221317,-0.115895,0.231790,0.012362,0.231790,0.075020,0.213392,0.075020,0.213392,
$1*%
%AMFreePoly3*
4,1,21,0.370214,0.210242,0.401713,0.155684,0.403112,0.139692,0.403112,-0.063396,0.381565,-0.122595,0.376137,-0.128518,0.299841,-0.204814,0.242746,-0.231439,0.234719,-0.231789,-0.234719,-0.231789,-0.293918,-0.210242,-0.299841,-0.204814,-0.376137,-0.128518,-0.402762,-0.071423,-0.403112,-0.063396,-0.403112,0.139692,-0.381565,0.198891,-0.327007,0.230390,-0.311015,0.231789,0.311015,0.231789,
0.370214,0.210242,0.370214,0.210242,$1*%
%AMFreePoly4*
4,1,21,0.293918,0.210242,0.299841,0.204814,0.376137,0.128518,0.402762,0.071423,0.403112,0.063396,0.403112,-0.139692,0.381565,-0.198891,0.327007,-0.230390,0.311015,-0.231789,-0.311015,-0.231789,-0.370214,-0.210242,-0.401713,-0.155684,-0.403112,-0.139692,-0.403112,0.063396,-0.381565,0.122595,-0.376137,0.128518,-0.299841,0.204814,-0.242746,0.231439,-0.234719,0.231789,0.234719,0.231789,
0.293918,0.210242,0.293918,0.210242,$1*%
%AMFreePoly5*
4,1,19,0.178553,0.213392,0.221317,0.164040,0.231790,0.115895,0.231790,-0.115895,0.213392,-0.178553,0.164040,-0.221317,0.115895,-0.231790,-0.012362,-0.231790,-0.075020,-0.213392,-0.094312,-0.197845,-0.197845,-0.094312,-0.229141,-0.036997,-0.231790,-0.012362,-0.231790,0.115895,-0.213392,0.178553,-0.164040,0.221317,-0.115895,0.231790,0.115895,0.231790,0.178553,0.213392,0.178553,0.213392,
$1*%
%AMFreePoly6*
4,1,21,0.198891,0.381565,0.230390,0.327007,0.231789,0.311015,0.231789,-0.311015,0.210242,-0.370214,0.155684,-0.401713,0.139692,-0.403112,-0.063396,-0.403112,-0.122595,-0.381565,-0.128518,-0.376137,-0.204814,-0.299841,-0.231439,-0.242746,-0.231789,-0.234719,-0.231789,0.234719,-0.210242,0.293918,-0.204814,0.299841,-0.128518,0.376137,-0.071423,0.402762,-0.063396,0.403112,0.139692,0.403112,
0.198891,0.381565,0.198891,0.381565,$1*%
%AMFreePoly7*
4,1,19,0.178553,0.213392,0.221317,0.164040,0.231790,0.115895,0.231790,-0.115895,0.213392,-0.178553,0.164040,-0.221317,0.115895,-0.231790,-0.115895,-0.231790,-0.178553,-0.213392,-0.221317,-0.164040,-0.231790,-0.115895,-0.231790,0.012362,-0.213392,0.075020,-0.197845,0.094312,-0.094312,0.197845,-0.036997,0.229141,-0.012362,0.231790,0.115895,0.231790,0.178553,0.213392,0.178553,0.213392,
$1*%
G04 Aperture macros list end*
%ADD10RoundRect,0.225000X0.225000X0.250000X-0.225000X0.250000X-0.225000X-0.250000X0.225000X-0.250000X0*%
%ADD11RoundRect,0.250000X-0.325000X-0.650000X0.325000X-0.650000X0.325000X0.650000X-0.325000X0.650000X0*%
%ADD12FreePoly0,0.000000*%
%ADD13FreePoly1,0.000000*%
%ADD14FreePoly2,0.000000*%
%ADD15FreePoly3,0.000000*%
%ADD16RoundRect,0.201557X-0.201556X-0.201556X0.201556X-0.201556X0.201556X0.201556X-0.201556X0.201556X0*%
%ADD17FreePoly4,0.000000*%
%ADD18FreePoly5,0.000000*%
%ADD19FreePoly6,0.000000*%
%ADD20FreePoly7,0.000000*%
%ADD21RoundRect,0.087500X-0.425000X-0.087500X0.425000X-0.087500X0.425000X0.087500X-0.425000X0.087500X0*%
%ADD22RoundRect,0.087500X-0.087500X-0.425000X0.087500X-0.425000X0.087500X0.425000X-0.087500X0.425000X0*%
%ADD23RoundRect,0.225000X-0.225000X-0.250000X0.225000X-0.250000X0.225000X0.250000X-0.225000X0.250000X0*%
%ADD24RoundRect,0.225000X-0.250000X0.225000X-0.250000X-0.225000X0.250000X-0.225000X0.250000X0.225000X0*%
%ADD25RoundRect,0.202500X-0.202500X0.282500X-0.202500X-0.282500X0.202500X-0.282500X0.202500X0.282500X0*%
%ADD26RoundRect,0.062500X-0.062500X0.425000X-0.062500X-0.425000X0.062500X-0.425000X0.062500X0.425000X0*%
%ADD27RoundRect,0.200000X-0.200000X-0.275000X0.200000X-0.275000X0.200000X0.275000X-0.200000X0.275000X0*%
%ADD28RoundRect,0.250000X-0.450000X0.262500X-0.450000X-0.262500X0.450000X-0.262500X0.450000X0.262500X0*%
%ADD29RoundRect,0.225000X0.250000X-0.225000X0.250000X0.225000X-0.250000X0.225000X-0.250000X-0.225000X0*%
%ADD30RoundRect,0.200000X-0.275000X0.200000X-0.275000X-0.200000X0.275000X-0.200000X0.275000X0.200000X0*%
%ADD31RoundRect,0.250000X0.325000X0.650000X-0.325000X0.650000X-0.325000X-0.650000X0.325000X-0.650000X0*%
%ADD32RoundRect,0.150000X0.587500X0.150000X-0.587500X0.150000X-0.587500X-0.150000X0.587500X-0.150000X0*%
%ADD33RoundRect,0.218750X0.218750X0.381250X-0.218750X0.381250X-0.218750X-0.381250X0.218750X-0.381250X0*%
%ADD34RoundRect,0.200000X0.200000X0.275000X-0.200000X0.275000X-0.200000X-0.275000X0.200000X-0.275000X0*%
G04 APERTURE END LIST*
D10*
%TO.C,C1*%
X33500000Y-18500000D03*
X31950000Y-18500000D03*
%TD*%
D11*
%TO.C,C3*%
X35000000Y-43000000D03*
X37950000Y-43000000D03*
%TD*%
D12*
%TO.C,U2*%
X33712500Y-31962500D03*
D13*
X33712500Y-32750000D03*
X33712500Y-33750000D03*
D14*
X33712500Y-34537500D03*
D15*
X34500000Y-31962500D03*
D16*
X34500000Y-32750000D03*
X34500000Y-33750000D03*
D17*
X34500000Y-34537500D03*
D15*
X35500000Y-31962500D03*
D16*
X35500000Y-32750000D03*
X35500000Y-33750000D03*
D17*
X35500000Y-34537500D03*
D18*
X36287500Y-31962500D03*
D19*
X36287500Y-32750000D03*
X36287500Y-33750000D03*
D20*
X36287500Y-34537500D03*
D21*
X32637500Y-31950000D03*
X32637500Y-32600000D03*
X32637500Y-33250000D03*
X32637500Y-33900000D03*
X32637500Y-34550000D03*
D22*
X33700000Y-35612500D03*
X34350000Y-35612500D03*
X35000000Y-35612500D03*
X35650000Y-35612500D03*
X36300000Y-35612500D03*
D21*
X37362500Y-34550000D03*
X37362500Y-33900000D03*
X37362500Y-33250000D03*
X37362500Y-32600000D03*
X37362500Y-31950000D03*
D22*
X36300000Y-30887500D03*
X35650000Y-30887500D03*
X35000000Y-30887500D03*
X34350000Y-30887500D03*
X33700000Y-30887500D03*
%TD*%
D23*
%TO.C,C7*%
X34950000Y-39500000D03*
X36500000Y-39500000D03*
%TD*%
D24*
%TO.C,Cf1*%
X27000000Y-31500000D03*
X27000000Y-33050000D03*
%TD*%
D25*
%TO.C,U1*%
X24500000Y-32500000D03*
X23500000Y-32500000D03*
D26*
X24750000Y-31112500D03*
X24250000Y-31112500D03*
X23750000Y-31112500D03*
X23250000Y-31112500D03*
X23250000Y-33887500D03*
X23750000Y-33887500D03*
X24250000Y-33887500D03*
X24750000Y-33887500D03*
%TD*%
D27*
%TO.C,R4*%
X23000000Y-26500000D03*
X24650000Y-26500000D03*
%TD*%
%TO.C,R5*%
X23000000Y-38500000D03*
X24650000Y-38500000D03*
%TD*%
D28*
%TO.C,Rf1*%
X29000000Y-31500000D03*
X29000000Y-33325000D03*
%TD*%
D29*
%TO.C,C5*%
X21250000Y-33050000D03*
X21250000Y-31500000D03*
%TD*%
D30*
%TO.C,R3*%
X28000000Y-38000000D03*
X28000000Y-39650000D03*
%TD*%
D31*
%TO.C,C6*%
X37000000Y-27000000D03*
X34050000Y-27000000D03*
%TD*%
D29*
%TO.C,C2*%
X28000000Y-43050000D03*
X28000000Y-41500000D03*
%TD*%
%TO.C,C4*%
X19500000Y-33050000D03*
X19500000Y-31500000D03*
%TD*%
D32*
%TO.C,D1*%
X29000000Y-22000000D03*
X29000000Y-20100000D03*
X27125000Y-21050000D03*
%TD*%
D33*
%TO.C,L1*%
X36125000Y-23562500D03*
X34000000Y-23562500D03*
%TD*%
D34*
%TO.C,R2*%
X37400000Y-18500000D03*
X35750000Y-18500000D03*
%TD*%
%TO.C,R1*%
X24500000Y-21000000D03*
X22850000Y-21000000D03*
%TD*%
M02*
