%TF.GenerationSoftware,KiCad,Pcbnew,9.0.0*%
%TF.CreationDate,2025-06-21T21:16:28+05:30*%
%TF.ProjectId,csa,6373612e-6b69-4636-9164-5f7063625858,rev?*%
%TF.SameCoordinates,Original*%
%TF.FileFunction,Legend,Top*%
%TF.FilePolarity,Positive*%
%FSLAX46Y46*%
G04 Gerber Fmt 4.6, Leading zero omitted, Abs format (unit mm)*
G04 Created by KiCad (PCBNEW 9.0.0) date 2025-06-21 21:16:28*
%MOMM*%
%LPD*%
G01*
G04 APERTURE LIST*
%ADD10C,0.150000*%
%ADD11C,0.120000*%
G04 APERTURE END LIST*
D10*
X32558333Y-20289580D02*
X32510714Y-20337200D01*
X32510714Y-20337200D02*
X32367857Y-20384819D01*
X32367857Y-20384819D02*
X32272619Y-20384819D01*
X32272619Y-20384819D02*
X32129762Y-20337200D01*
X32129762Y-20337200D02*
X32034524Y-20241961D01*
X32034524Y-20241961D02*
X31986905Y-20146723D01*
X31986905Y-20146723D02*
X31939286Y-19956247D01*
X31939286Y-19956247D02*
X31939286Y-19813390D01*
X31939286Y-19813390D02*
X31986905Y-19622914D01*
X31986905Y-19622914D02*
X32034524Y-19527676D01*
X32034524Y-19527676D02*
X32129762Y-19432438D01*
X32129762Y-19432438D02*
X32272619Y-19384819D01*
X32272619Y-19384819D02*
X32367857Y-19384819D01*
X32367857Y-19384819D02*
X32510714Y-19432438D01*
X32510714Y-19432438D02*
X32558333Y-19480057D01*
X33510714Y-20384819D02*
X32939286Y-20384819D01*
X33225000Y-20384819D02*
X33225000Y-19384819D01*
X33225000Y-19384819D02*
X33129762Y-19527676D01*
X33129762Y-19527676D02*
X33034524Y-19622914D01*
X33034524Y-19622914D02*
X32939286Y-19670533D01*
X36308333Y-41509580D02*
X36260714Y-41557200D01*
X36260714Y-41557200D02*
X36117857Y-41604819D01*
X36117857Y-41604819D02*
X36022619Y-41604819D01*
X36022619Y-41604819D02*
X35879762Y-41557200D01*
X35879762Y-41557200D02*
X35784524Y-41461961D01*
X35784524Y-41461961D02*
X35736905Y-41366723D01*
X35736905Y-41366723D02*
X35689286Y-41176247D01*
X35689286Y-41176247D02*
X35689286Y-41033390D01*
X35689286Y-41033390D02*
X35736905Y-40842914D01*
X35736905Y-40842914D02*
X35784524Y-40747676D01*
X35784524Y-40747676D02*
X35879762Y-40652438D01*
X35879762Y-40652438D02*
X36022619Y-40604819D01*
X36022619Y-40604819D02*
X36117857Y-40604819D01*
X36117857Y-40604819D02*
X36260714Y-40652438D01*
X36260714Y-40652438D02*
X36308333Y-40700057D01*
X36641667Y-40604819D02*
X37260714Y-40604819D01*
X37260714Y-40604819D02*
X36927381Y-40985771D01*
X36927381Y-40985771D02*
X37070238Y-40985771D01*
X37070238Y-40985771D02*
X37165476Y-41033390D01*
X37165476Y-41033390D02*
X37213095Y-41081009D01*
X37213095Y-41081009D02*
X37260714Y-41176247D01*
X37260714Y-41176247D02*
X37260714Y-41414342D01*
X37260714Y-41414342D02*
X37213095Y-41509580D01*
X37213095Y-41509580D02*
X37165476Y-41557200D01*
X37165476Y-41557200D02*
X37070238Y-41604819D01*
X37070238Y-41604819D02*
X36784524Y-41604819D01*
X36784524Y-41604819D02*
X36689286Y-41557200D01*
X36689286Y-41557200D02*
X36641667Y-41509580D01*
X34238095Y-28874819D02*
X34238095Y-29684342D01*
X34238095Y-29684342D02*
X34285714Y-29779580D01*
X34285714Y-29779580D02*
X34333333Y-29827200D01*
X34333333Y-29827200D02*
X34428571Y-29874819D01*
X34428571Y-29874819D02*
X34619047Y-29874819D01*
X34619047Y-29874819D02*
X34714285Y-29827200D01*
X34714285Y-29827200D02*
X34761904Y-29779580D01*
X34761904Y-29779580D02*
X34809523Y-29684342D01*
X34809523Y-29684342D02*
X34809523Y-28874819D01*
X35238095Y-28970057D02*
X35285714Y-28922438D01*
X35285714Y-28922438D02*
X35380952Y-28874819D01*
X35380952Y-28874819D02*
X35619047Y-28874819D01*
X35619047Y-28874819D02*
X35714285Y-28922438D01*
X35714285Y-28922438D02*
X35761904Y-28970057D01*
X35761904Y-28970057D02*
X35809523Y-29065295D01*
X35809523Y-29065295D02*
X35809523Y-29160533D01*
X35809523Y-29160533D02*
X35761904Y-29303390D01*
X35761904Y-29303390D02*
X35190476Y-29874819D01*
X35190476Y-29874819D02*
X35809523Y-29874819D01*
X35583333Y-38609580D02*
X35535714Y-38657200D01*
X35535714Y-38657200D02*
X35392857Y-38704819D01*
X35392857Y-38704819D02*
X35297619Y-38704819D01*
X35297619Y-38704819D02*
X35154762Y-38657200D01*
X35154762Y-38657200D02*
X35059524Y-38561961D01*
X35059524Y-38561961D02*
X35011905Y-38466723D01*
X35011905Y-38466723D02*
X34964286Y-38276247D01*
X34964286Y-38276247D02*
X34964286Y-38133390D01*
X34964286Y-38133390D02*
X35011905Y-37942914D01*
X35011905Y-37942914D02*
X35059524Y-37847676D01*
X35059524Y-37847676D02*
X35154762Y-37752438D01*
X35154762Y-37752438D02*
X35297619Y-37704819D01*
X35297619Y-37704819D02*
X35392857Y-37704819D01*
X35392857Y-37704819D02*
X35535714Y-37752438D01*
X35535714Y-37752438D02*
X35583333Y-37800057D01*
X35916667Y-37704819D02*
X36583333Y-37704819D01*
X36583333Y-37704819D02*
X36154762Y-38704819D01*
X26547618Y-30109580D02*
X26499999Y-30157200D01*
X26499999Y-30157200D02*
X26357142Y-30204819D01*
X26357142Y-30204819D02*
X26261904Y-30204819D01*
X26261904Y-30204819D02*
X26119047Y-30157200D01*
X26119047Y-30157200D02*
X26023809Y-30061961D01*
X26023809Y-30061961D02*
X25976190Y-29966723D01*
X25976190Y-29966723D02*
X25928571Y-29776247D01*
X25928571Y-29776247D02*
X25928571Y-29633390D01*
X25928571Y-29633390D02*
X25976190Y-29442914D01*
X25976190Y-29442914D02*
X26023809Y-29347676D01*
X26023809Y-29347676D02*
X26119047Y-29252438D01*
X26119047Y-29252438D02*
X26261904Y-29204819D01*
X26261904Y-29204819D02*
X26357142Y-29204819D01*
X26357142Y-29204819D02*
X26499999Y-29252438D01*
X26499999Y-29252438D02*
X26547618Y-29300057D01*
X26833333Y-29538152D02*
X27214285Y-29538152D01*
X26976190Y-30204819D02*
X26976190Y-29347676D01*
X26976190Y-29347676D02*
X27023809Y-29252438D01*
X27023809Y-29252438D02*
X27119047Y-29204819D01*
X27119047Y-29204819D02*
X27214285Y-29204819D01*
X28071428Y-30204819D02*
X27500000Y-30204819D01*
X27785714Y-30204819D02*
X27785714Y-29204819D01*
X27785714Y-29204819D02*
X27690476Y-29347676D01*
X27690476Y-29347676D02*
X27595238Y-29442914D01*
X27595238Y-29442914D02*
X27500000Y-29490533D01*
X23658333Y-25524819D02*
X23325000Y-25048628D01*
X23086905Y-25524819D02*
X23086905Y-24524819D01*
X23086905Y-24524819D02*
X23467857Y-24524819D01*
X23467857Y-24524819D02*
X23563095Y-24572438D01*
X23563095Y-24572438D02*
X23610714Y-24620057D01*
X23610714Y-24620057D02*
X23658333Y-24715295D01*
X23658333Y-24715295D02*
X23658333Y-24858152D01*
X23658333Y-24858152D02*
X23610714Y-24953390D01*
X23610714Y-24953390D02*
X23563095Y-25001009D01*
X23563095Y-25001009D02*
X23467857Y-25048628D01*
X23467857Y-25048628D02*
X23086905Y-25048628D01*
X24515476Y-24858152D02*
X24515476Y-25524819D01*
X24277381Y-24477200D02*
X24039286Y-25191485D01*
X24039286Y-25191485D02*
X24658333Y-25191485D01*
X23658333Y-37524819D02*
X23325000Y-37048628D01*
X23086905Y-37524819D02*
X23086905Y-36524819D01*
X23086905Y-36524819D02*
X23467857Y-36524819D01*
X23467857Y-36524819D02*
X23563095Y-36572438D01*
X23563095Y-36572438D02*
X23610714Y-36620057D01*
X23610714Y-36620057D02*
X23658333Y-36715295D01*
X23658333Y-36715295D02*
X23658333Y-36858152D01*
X23658333Y-36858152D02*
X23610714Y-36953390D01*
X23610714Y-36953390D02*
X23563095Y-37001009D01*
X23563095Y-37001009D02*
X23467857Y-37048628D01*
X23467857Y-37048628D02*
X23086905Y-37048628D01*
X24563095Y-36524819D02*
X24086905Y-36524819D01*
X24086905Y-36524819D02*
X24039286Y-37001009D01*
X24039286Y-37001009D02*
X24086905Y-36953390D01*
X24086905Y-36953390D02*
X24182143Y-36905771D01*
X24182143Y-36905771D02*
X24420238Y-36905771D01*
X24420238Y-36905771D02*
X24515476Y-36953390D01*
X24515476Y-36953390D02*
X24563095Y-37001009D01*
X24563095Y-37001009D02*
X24610714Y-37096247D01*
X24610714Y-37096247D02*
X24610714Y-37334342D01*
X24610714Y-37334342D02*
X24563095Y-37429580D01*
X24563095Y-37429580D02*
X24515476Y-37477200D01*
X24515476Y-37477200D02*
X24420238Y-37524819D01*
X24420238Y-37524819D02*
X24182143Y-37524819D01*
X24182143Y-37524819D02*
X24086905Y-37477200D01*
X24086905Y-37477200D02*
X24039286Y-37429580D01*
X29047618Y-30204819D02*
X28714285Y-29728628D01*
X28476190Y-30204819D02*
X28476190Y-29204819D01*
X28476190Y-29204819D02*
X28857142Y-29204819D01*
X28857142Y-29204819D02*
X28952380Y-29252438D01*
X28952380Y-29252438D02*
X28999999Y-29300057D01*
X28999999Y-29300057D02*
X29047618Y-29395295D01*
X29047618Y-29395295D02*
X29047618Y-29538152D01*
X29047618Y-29538152D02*
X28999999Y-29633390D01*
X28999999Y-29633390D02*
X28952380Y-29681009D01*
X28952380Y-29681009D02*
X28857142Y-29728628D01*
X28857142Y-29728628D02*
X28476190Y-29728628D01*
X29333333Y-29538152D02*
X29714285Y-29538152D01*
X29476190Y-30204819D02*
X29476190Y-29347676D01*
X29476190Y-29347676D02*
X29523809Y-29252438D01*
X29523809Y-29252438D02*
X29619047Y-29204819D01*
X29619047Y-29204819D02*
X29714285Y-29204819D01*
X30571428Y-30204819D02*
X30000000Y-30204819D01*
X30285714Y-30204819D02*
X30285714Y-29204819D01*
X30285714Y-29204819D02*
X30190476Y-29347676D01*
X30190476Y-29347676D02*
X30095238Y-29442914D01*
X30095238Y-29442914D02*
X30000000Y-29490533D01*
X21083333Y-29859580D02*
X21035714Y-29907200D01*
X21035714Y-29907200D02*
X20892857Y-29954819D01*
X20892857Y-29954819D02*
X20797619Y-29954819D01*
X20797619Y-29954819D02*
X20654762Y-29907200D01*
X20654762Y-29907200D02*
X20559524Y-29811961D01*
X20559524Y-29811961D02*
X20511905Y-29716723D01*
X20511905Y-29716723D02*
X20464286Y-29526247D01*
X20464286Y-29526247D02*
X20464286Y-29383390D01*
X20464286Y-29383390D02*
X20511905Y-29192914D01*
X20511905Y-29192914D02*
X20559524Y-29097676D01*
X20559524Y-29097676D02*
X20654762Y-29002438D01*
X20654762Y-29002438D02*
X20797619Y-28954819D01*
X20797619Y-28954819D02*
X20892857Y-28954819D01*
X20892857Y-28954819D02*
X21035714Y-29002438D01*
X21035714Y-29002438D02*
X21083333Y-29050057D01*
X21988095Y-28954819D02*
X21511905Y-28954819D01*
X21511905Y-28954819D02*
X21464286Y-29431009D01*
X21464286Y-29431009D02*
X21511905Y-29383390D01*
X21511905Y-29383390D02*
X21607143Y-29335771D01*
X21607143Y-29335771D02*
X21845238Y-29335771D01*
X21845238Y-29335771D02*
X21940476Y-29383390D01*
X21940476Y-29383390D02*
X21988095Y-29431009D01*
X21988095Y-29431009D02*
X22035714Y-29526247D01*
X22035714Y-29526247D02*
X22035714Y-29764342D01*
X22035714Y-29764342D02*
X21988095Y-29859580D01*
X21988095Y-29859580D02*
X21940476Y-29907200D01*
X21940476Y-29907200D02*
X21845238Y-29954819D01*
X21845238Y-29954819D02*
X21607143Y-29954819D01*
X21607143Y-29954819D02*
X21511905Y-29907200D01*
X21511905Y-29907200D02*
X21464286Y-29859580D01*
X27666666Y-45954819D02*
X27666666Y-46669104D01*
X27666666Y-46669104D02*
X27619047Y-46811961D01*
X27619047Y-46811961D02*
X27523809Y-46907200D01*
X27523809Y-46907200D02*
X27380952Y-46954819D01*
X27380952Y-46954819D02*
X27285714Y-46954819D01*
X28095238Y-46050057D02*
X28142857Y-46002438D01*
X28142857Y-46002438D02*
X28238095Y-45954819D01*
X28238095Y-45954819D02*
X28476190Y-45954819D01*
X28476190Y-45954819D02*
X28571428Y-46002438D01*
X28571428Y-46002438D02*
X28619047Y-46050057D01*
X28619047Y-46050057D02*
X28666666Y-46145295D01*
X28666666Y-46145295D02*
X28666666Y-46240533D01*
X28666666Y-46240533D02*
X28619047Y-46383390D01*
X28619047Y-46383390D02*
X28047619Y-46954819D01*
X28047619Y-46954819D02*
X28666666Y-46954819D01*
X29884819Y-38991666D02*
X29408628Y-39324999D01*
X29884819Y-39563094D02*
X28884819Y-39563094D01*
X28884819Y-39563094D02*
X28884819Y-39182142D01*
X28884819Y-39182142D02*
X28932438Y-39086904D01*
X28932438Y-39086904D02*
X28980057Y-39039285D01*
X28980057Y-39039285D02*
X29075295Y-38991666D01*
X29075295Y-38991666D02*
X29218152Y-38991666D01*
X29218152Y-38991666D02*
X29313390Y-39039285D01*
X29313390Y-39039285D02*
X29361009Y-39086904D01*
X29361009Y-39086904D02*
X29408628Y-39182142D01*
X29408628Y-39182142D02*
X29408628Y-39563094D01*
X28884819Y-38658332D02*
X28884819Y-38039285D01*
X28884819Y-38039285D02*
X29265771Y-38372618D01*
X29265771Y-38372618D02*
X29265771Y-38229761D01*
X29265771Y-38229761D02*
X29313390Y-38134523D01*
X29313390Y-38134523D02*
X29361009Y-38086904D01*
X29361009Y-38086904D02*
X29456247Y-38039285D01*
X29456247Y-38039285D02*
X29694342Y-38039285D01*
X29694342Y-38039285D02*
X29789580Y-38086904D01*
X29789580Y-38086904D02*
X29837200Y-38134523D01*
X29837200Y-38134523D02*
X29884819Y-38229761D01*
X29884819Y-38229761D02*
X29884819Y-38515475D01*
X29884819Y-38515475D02*
X29837200Y-38610713D01*
X29837200Y-38610713D02*
X29789580Y-38658332D01*
X32083333Y-27209580D02*
X32035714Y-27257200D01*
X32035714Y-27257200D02*
X31892857Y-27304819D01*
X31892857Y-27304819D02*
X31797619Y-27304819D01*
X31797619Y-27304819D02*
X31654762Y-27257200D01*
X31654762Y-27257200D02*
X31559524Y-27161961D01*
X31559524Y-27161961D02*
X31511905Y-27066723D01*
X31511905Y-27066723D02*
X31464286Y-26876247D01*
X31464286Y-26876247D02*
X31464286Y-26733390D01*
X31464286Y-26733390D02*
X31511905Y-26542914D01*
X31511905Y-26542914D02*
X31559524Y-26447676D01*
X31559524Y-26447676D02*
X31654762Y-26352438D01*
X31654762Y-26352438D02*
X31797619Y-26304819D01*
X31797619Y-26304819D02*
X31892857Y-26304819D01*
X31892857Y-26304819D02*
X32035714Y-26352438D01*
X32035714Y-26352438D02*
X32083333Y-26400057D01*
X32940476Y-26304819D02*
X32750000Y-26304819D01*
X32750000Y-26304819D02*
X32654762Y-26352438D01*
X32654762Y-26352438D02*
X32607143Y-26400057D01*
X32607143Y-26400057D02*
X32511905Y-26542914D01*
X32511905Y-26542914D02*
X32464286Y-26733390D01*
X32464286Y-26733390D02*
X32464286Y-27114342D01*
X32464286Y-27114342D02*
X32511905Y-27209580D01*
X32511905Y-27209580D02*
X32559524Y-27257200D01*
X32559524Y-27257200D02*
X32654762Y-27304819D01*
X32654762Y-27304819D02*
X32845238Y-27304819D01*
X32845238Y-27304819D02*
X32940476Y-27257200D01*
X32940476Y-27257200D02*
X32988095Y-27209580D01*
X32988095Y-27209580D02*
X33035714Y-27114342D01*
X33035714Y-27114342D02*
X33035714Y-26876247D01*
X33035714Y-26876247D02*
X32988095Y-26781009D01*
X32988095Y-26781009D02*
X32940476Y-26733390D01*
X32940476Y-26733390D02*
X32845238Y-26685771D01*
X32845238Y-26685771D02*
X32654762Y-26685771D01*
X32654762Y-26685771D02*
X32559524Y-26733390D01*
X32559524Y-26733390D02*
X32511905Y-26781009D01*
X32511905Y-26781009D02*
X32464286Y-26876247D01*
X26929580Y-42441666D02*
X26977200Y-42489285D01*
X26977200Y-42489285D02*
X27024819Y-42632142D01*
X27024819Y-42632142D02*
X27024819Y-42727380D01*
X27024819Y-42727380D02*
X26977200Y-42870237D01*
X26977200Y-42870237D02*
X26881961Y-42965475D01*
X26881961Y-42965475D02*
X26786723Y-43013094D01*
X26786723Y-43013094D02*
X26596247Y-43060713D01*
X26596247Y-43060713D02*
X26453390Y-43060713D01*
X26453390Y-43060713D02*
X26262914Y-43013094D01*
X26262914Y-43013094D02*
X26167676Y-42965475D01*
X26167676Y-42965475D02*
X26072438Y-42870237D01*
X26072438Y-42870237D02*
X26024819Y-42727380D01*
X26024819Y-42727380D02*
X26024819Y-42632142D01*
X26024819Y-42632142D02*
X26072438Y-42489285D01*
X26072438Y-42489285D02*
X26120057Y-42441666D01*
X26120057Y-42060713D02*
X26072438Y-42013094D01*
X26072438Y-42013094D02*
X26024819Y-41917856D01*
X26024819Y-41917856D02*
X26024819Y-41679761D01*
X26024819Y-41679761D02*
X26072438Y-41584523D01*
X26072438Y-41584523D02*
X26120057Y-41536904D01*
X26120057Y-41536904D02*
X26215295Y-41489285D01*
X26215295Y-41489285D02*
X26310533Y-41489285D01*
X26310533Y-41489285D02*
X26453390Y-41536904D01*
X26453390Y-41536904D02*
X27024819Y-42108332D01*
X27024819Y-42108332D02*
X27024819Y-41489285D01*
X19083333Y-29859580D02*
X19035714Y-29907200D01*
X19035714Y-29907200D02*
X18892857Y-29954819D01*
X18892857Y-29954819D02*
X18797619Y-29954819D01*
X18797619Y-29954819D02*
X18654762Y-29907200D01*
X18654762Y-29907200D02*
X18559524Y-29811961D01*
X18559524Y-29811961D02*
X18511905Y-29716723D01*
X18511905Y-29716723D02*
X18464286Y-29526247D01*
X18464286Y-29526247D02*
X18464286Y-29383390D01*
X18464286Y-29383390D02*
X18511905Y-29192914D01*
X18511905Y-29192914D02*
X18559524Y-29097676D01*
X18559524Y-29097676D02*
X18654762Y-29002438D01*
X18654762Y-29002438D02*
X18797619Y-28954819D01*
X18797619Y-28954819D02*
X18892857Y-28954819D01*
X18892857Y-28954819D02*
X19035714Y-29002438D01*
X19035714Y-29002438D02*
X19083333Y-29050057D01*
X19940476Y-29288152D02*
X19940476Y-29954819D01*
X19702381Y-28907200D02*
X19464286Y-29621485D01*
X19464286Y-29621485D02*
X20083333Y-29621485D01*
X19166666Y-25284819D02*
X19166666Y-25999104D01*
X19166666Y-25999104D02*
X19119047Y-26141961D01*
X19119047Y-26141961D02*
X19023809Y-26237200D01*
X19023809Y-26237200D02*
X18880952Y-26284819D01*
X18880952Y-26284819D02*
X18785714Y-26284819D01*
X20166666Y-26284819D02*
X19595238Y-26284819D01*
X19880952Y-26284819D02*
X19880952Y-25284819D01*
X19880952Y-25284819D02*
X19785714Y-25427676D01*
X19785714Y-25427676D02*
X19690476Y-25522914D01*
X19690476Y-25522914D02*
X19595238Y-25570533D01*
X27324405Y-23904819D02*
X27324405Y-22904819D01*
X27324405Y-22904819D02*
X27562500Y-22904819D01*
X27562500Y-22904819D02*
X27705357Y-22952438D01*
X27705357Y-22952438D02*
X27800595Y-23047676D01*
X27800595Y-23047676D02*
X27848214Y-23142914D01*
X27848214Y-23142914D02*
X27895833Y-23333390D01*
X27895833Y-23333390D02*
X27895833Y-23476247D01*
X27895833Y-23476247D02*
X27848214Y-23666723D01*
X27848214Y-23666723D02*
X27800595Y-23761961D01*
X27800595Y-23761961D02*
X27705357Y-23857200D01*
X27705357Y-23857200D02*
X27562500Y-23904819D01*
X27562500Y-23904819D02*
X27324405Y-23904819D01*
X28848214Y-23904819D02*
X28276786Y-23904819D01*
X28562500Y-23904819D02*
X28562500Y-22904819D01*
X28562500Y-22904819D02*
X28467262Y-23047676D01*
X28467262Y-23047676D02*
X28372024Y-23142914D01*
X28372024Y-23142914D02*
X28276786Y-23190533D01*
X32333333Y-23954819D02*
X31857143Y-23954819D01*
X31857143Y-23954819D02*
X31857143Y-22954819D01*
X33190476Y-23954819D02*
X32619048Y-23954819D01*
X32904762Y-23954819D02*
X32904762Y-22954819D01*
X32904762Y-22954819D02*
X32809524Y-23097676D01*
X32809524Y-23097676D02*
X32714286Y-23192914D01*
X32714286Y-23192914D02*
X32619048Y-23240533D01*
X36408333Y-20384819D02*
X36075000Y-19908628D01*
X35836905Y-20384819D02*
X35836905Y-19384819D01*
X35836905Y-19384819D02*
X36217857Y-19384819D01*
X36217857Y-19384819D02*
X36313095Y-19432438D01*
X36313095Y-19432438D02*
X36360714Y-19480057D01*
X36360714Y-19480057D02*
X36408333Y-19575295D01*
X36408333Y-19575295D02*
X36408333Y-19718152D01*
X36408333Y-19718152D02*
X36360714Y-19813390D01*
X36360714Y-19813390D02*
X36313095Y-19861009D01*
X36313095Y-19861009D02*
X36217857Y-19908628D01*
X36217857Y-19908628D02*
X35836905Y-19908628D01*
X36789286Y-19480057D02*
X36836905Y-19432438D01*
X36836905Y-19432438D02*
X36932143Y-19384819D01*
X36932143Y-19384819D02*
X37170238Y-19384819D01*
X37170238Y-19384819D02*
X37265476Y-19432438D01*
X37265476Y-19432438D02*
X37313095Y-19480057D01*
X37313095Y-19480057D02*
X37360714Y-19575295D01*
X37360714Y-19575295D02*
X37360714Y-19670533D01*
X37360714Y-19670533D02*
X37313095Y-19813390D01*
X37313095Y-19813390D02*
X36741667Y-20384819D01*
X36741667Y-20384819D02*
X37360714Y-20384819D01*
X23508333Y-22884819D02*
X23175000Y-22408628D01*
X22936905Y-22884819D02*
X22936905Y-21884819D01*
X22936905Y-21884819D02*
X23317857Y-21884819D01*
X23317857Y-21884819D02*
X23413095Y-21932438D01*
X23413095Y-21932438D02*
X23460714Y-21980057D01*
X23460714Y-21980057D02*
X23508333Y-22075295D01*
X23508333Y-22075295D02*
X23508333Y-22218152D01*
X23508333Y-22218152D02*
X23460714Y-22313390D01*
X23460714Y-22313390D02*
X23413095Y-22361009D01*
X23413095Y-22361009D02*
X23317857Y-22408628D01*
X23317857Y-22408628D02*
X22936905Y-22408628D01*
X24460714Y-22884819D02*
X23889286Y-22884819D01*
X24175000Y-22884819D02*
X24175000Y-21884819D01*
X24175000Y-21884819D02*
X24079762Y-22027676D01*
X24079762Y-22027676D02*
X23984524Y-22122914D01*
X23984524Y-22122914D02*
X23889286Y-22170533D01*
D11*
%TO.C,C1*%
X32865580Y-17990000D02*
X32584420Y-17990000D01*
X32865580Y-19010000D02*
X32584420Y-19010000D01*
%TO.C,C3*%
X35763748Y-42090000D02*
X37186252Y-42090000D01*
X35763748Y-43910000D02*
X37186252Y-43910000D01*
%TO.C,U2*%
X32390000Y-31515000D02*
X32390000Y-30880000D01*
X32390000Y-35860000D02*
X32390000Y-34985000D01*
X33265000Y-30640000D02*
X32690000Y-30640000D01*
X33265000Y-35860000D02*
X32390000Y-35860000D01*
X36735000Y-30640000D02*
X37610000Y-30640000D01*
X36735000Y-35860000D02*
X37610000Y-35860000D01*
X37610000Y-30640000D02*
X37610000Y-31515000D01*
X37610000Y-35860000D02*
X37610000Y-34985000D01*
X32390000Y-30640000D02*
X32150000Y-30310000D01*
X32630000Y-30310000D01*
X32390000Y-30640000D01*
G36*
X32390000Y-30640000D02*
G01*
X32150000Y-30310000D01*
X32630000Y-30310000D01*
X32390000Y-30640000D01*
G37*
%TO.C,C7*%
X35584420Y-38990000D02*
X35865580Y-38990000D01*
X35584420Y-40010000D02*
X35865580Y-40010000D01*
%TO.C,Cf1*%
X26490000Y-32134420D02*
X26490000Y-32415580D01*
X27510000Y-32134420D02*
X27510000Y-32415580D01*
%TO.C,U1*%
X22390000Y-31000000D02*
X22390000Y-34000000D01*
X25610000Y-31000000D02*
X25610000Y-34000000D01*
X25530000Y-30450000D02*
X25050000Y-30450000D01*
X25050000Y-29970000D01*
X25530000Y-30450000D01*
G36*
X25530000Y-30450000D02*
G01*
X25050000Y-30450000D01*
X25050000Y-29970000D01*
X25530000Y-30450000D01*
G37*
%TO.C,R4*%
X23587742Y-25977500D02*
X24062258Y-25977500D01*
X23587742Y-27022500D02*
X24062258Y-27022500D01*
%TO.C,R5*%
X23587742Y-37977500D02*
X24062258Y-37977500D01*
X23587742Y-39022500D02*
X24062258Y-39022500D01*
%TO.C,Rf1*%
X28265000Y-32185436D02*
X28265000Y-32639564D01*
X29735000Y-32185436D02*
X29735000Y-32639564D01*
%TO.C,C5*%
X20740000Y-32415580D02*
X20740000Y-32134420D01*
X21760000Y-32415580D02*
X21760000Y-32134420D01*
%TO.C,J2*%
X19090000Y-47830000D02*
X19090000Y-46500000D01*
X20420000Y-47830000D02*
X19090000Y-47830000D01*
X21690000Y-45170000D02*
X26830000Y-45170000D01*
X21690000Y-47830000D02*
X21690000Y-45170000D01*
X21690000Y-47830000D02*
X26830000Y-47830000D01*
X26830000Y-47830000D02*
X26830000Y-45170000D01*
%TO.C,R3*%
X27477500Y-38587742D02*
X27477500Y-39062258D01*
X28522500Y-38587742D02*
X28522500Y-39062258D01*
%TO.C,C6*%
X36236252Y-26090000D02*
X34813748Y-26090000D01*
X36236252Y-27910000D02*
X34813748Y-27910000D01*
%TO.C,C2*%
X27490000Y-42415580D02*
X27490000Y-42134420D01*
X28510000Y-42415580D02*
X28510000Y-42134420D01*
%TO.C,C4*%
X18990000Y-32415580D02*
X18990000Y-32134420D01*
X20010000Y-32415580D02*
X20010000Y-32134420D01*
%TO.C,J1*%
X18170000Y-22230000D02*
X18170000Y-17090000D01*
X20830000Y-17090000D02*
X18170000Y-17090000D01*
X20830000Y-22230000D02*
X18170000Y-22230000D01*
X20830000Y-22230000D02*
X20830000Y-17090000D01*
X20830000Y-23500000D02*
X20830000Y-24830000D01*
X20830000Y-24830000D02*
X19500000Y-24830000D01*
%TO.C,D1*%
X28062500Y-19490000D02*
X27412500Y-19490000D01*
X28062500Y-19490000D02*
X28712500Y-19490000D01*
X28062500Y-22610000D02*
X27412500Y-22610000D01*
X28062500Y-22610000D02*
X28712500Y-22610000D01*
X29465000Y-22890000D02*
X28985000Y-22890000D01*
X29225000Y-22560000D01*
X29465000Y-22890000D01*
G36*
X29465000Y-22890000D02*
G01*
X28985000Y-22890000D01*
X29225000Y-22560000D01*
X29465000Y-22890000D01*
G37*
%TO.C,L1*%
X35462122Y-23002500D02*
X34662878Y-23002500D01*
X35462122Y-24122500D02*
X34662878Y-24122500D01*
%TO.C,R2*%
X36812258Y-17977500D02*
X36337742Y-17977500D01*
X36812258Y-19022500D02*
X36337742Y-19022500D01*
%TO.C,R1*%
X23912258Y-20477500D02*
X23437742Y-20477500D01*
X23912258Y-21522500D02*
X23437742Y-21522500D01*
%TD*%
M02*
