%TF.GenerationSoftware,KiCad,Pcbnew,9.0.0*%
%TF.CreationDate,2025-06-21T21:16:28+05:30*%
%TF.ProjectId,csa,6373612e-6b69-4636-9164-5f7063625858,rev?*%
%TF.SameCoordinates,Original*%
%TF.FileFunction,Copper,L4,Bot*%
%TF.FilePolarity,Positive*%
%FSLAX46Y46*%
G04 Gerber Fmt 4.6, Leading zero omitted, Abs format (unit mm)*
G04 Created by KiCad (PCBNEW 9.0.0) date 2025-06-21 21:16:28*
%MOMM*%
%LPD*%
G01*
G04 APERTURE LIST*
%TA.AperFunction,HeatsinkPad*%
%ADD10C,0.500000*%
%TD*%
%TA.AperFunction,HeatsinkPad*%
%ADD11R,2.500000X2.500000*%
%TD*%
%TA.AperFunction,ComponentPad*%
%ADD12R,1.700000X1.700000*%
%TD*%
%TA.AperFunction,ComponentPad*%
%ADD13O,1.700000X1.700000*%
%TD*%
%TA.AperFunction,ViaPad*%
%ADD14C,0.600000*%
%TD*%
%TA.AperFunction,Conductor*%
%ADD15C,0.200000*%
%TD*%
G04 APERTURE END LIST*
D10*
%TO.P,U2,21,EP*%
%TO.N,GND*%
X34000000Y-32250000D03*
X34000000Y-33250000D03*
X34000000Y-34250000D03*
X35000000Y-32250000D03*
X35000000Y-33250000D03*
D11*
X35000000Y-33250000D03*
D10*
X35000000Y-34250000D03*
X36000000Y-32250000D03*
X36000000Y-33250000D03*
X36000000Y-34250000D03*
%TD*%
D12*
%TO.P,J2,1,Pin_1*%
%TO.N,GND*%
X20420000Y-46500000D03*
D13*
%TO.P,J2,2,Pin_2*%
%TO.N,Net-(J2-Pin_2)*%
X22960000Y-46500000D03*
%TO.P,J2,3,Pin_3*%
%TO.N,unconnected-(J2-Pin_3-Pad3)*%
X25500000Y-46500000D03*
%TD*%
D12*
%TO.P,J1,1,Pin_1*%
%TO.N,GND*%
X19500000Y-23500000D03*
D13*
%TO.P,J1,2,Pin_2*%
%TO.N,Net-(J1-Pin_2)*%
X19500000Y-20960000D03*
%TO.P,J1,3,Pin_3*%
%TO.N,+5V*%
X19500000Y-18420000D03*
%TD*%
D14*
%TO.N,GND*%
X37400000Y-18500000D03*
X34500000Y-37000000D03*
X29000000Y-20100000D03*
X20500000Y-43750000D03*
X34950000Y-39500000D03*
X22000000Y-23500000D03*
X21000000Y-35250000D03*
X35000000Y-43000000D03*
X34050000Y-27000000D03*
%TO.N,+3.3V*%
X31250000Y-31950000D03*
X33700000Y-29750000D03*
X36500000Y-41500000D03*
X20000000Y-30250000D03*
%TO.N,Net-(U1-OUT)*%
X24250000Y-35000000D03*
X25500000Y-36000000D03*
%TO.N,+5V*%
X21500000Y-18420000D03*
X23000000Y-38500000D03*
X29000000Y-22000000D03*
X24650000Y-26500000D03*
X34000000Y-23562500D03*
%TO.N,Net-(U1-\u002APD)*%
X23000000Y-26500000D03*
X24750000Y-30000000D03*
%TO.N,Net-(U1-COMP)*%
X23500000Y-35500000D03*
X24500000Y-38500000D03*
%TD*%
D15*
%TO.N,Net-(U1-OUT)*%
X24250000Y-35000000D02*
X24250000Y-35250000D01*
X24250000Y-35250000D02*
X25000000Y-36000000D01*
X25000000Y-36000000D02*
X25500000Y-36000000D01*
%TO.N,+5V*%
X32437500Y-22000000D02*
X34000000Y-23562500D01*
X29000000Y-22000000D02*
X32437500Y-22000000D01*
%TO.N,Net-(U1-\u002APD)*%
X23000000Y-28250000D02*
X23000000Y-26500000D01*
X24750000Y-30000000D02*
X23000000Y-28250000D01*
%TO.N,Net-(U1-COMP)*%
X24500000Y-37000000D02*
X23500000Y-36000000D01*
X23500000Y-36000000D02*
X23500000Y-35500000D01*
X24500000Y-38500000D02*
X24500000Y-37000000D01*
%TD*%
M02*
