M48
; DRILL file {KiCad 9.0.0} date 2025-06-21T21:16:32+0530
; FORMAT={-:-/ absolute / metric / decimal}
; #@! TF.CreationDate,2025-06-21T21:16:32+05:30
; #@! TF.GenerationSoftware,Kicad,Pcbnew,9.0.0
; #@! TF.FileFunction,Plated,1,4,PTH
FMAT,2
METRIC
; #@! TA.AperFunction,Plated,PTH,ComponentDrill
T1C0.200
; #@! TA.AperFunction,Plated,PTH,ViaDrill
T2C0.300
; #@! TA.AperFunction,Plated,PTH,ComponentDrill
T3C1.000
%
G90
G05
T1
X34.0Y-32.25
X34.0Y-33.25
X34.0Y-34.25
X35.0Y-32.25
X35.0Y-33.25
X35.0Y-34.25
X36.0Y-32.25
X36.0Y-33.25
X36.0Y-34.25
T2
X20.0Y-30.25
X20.5Y-43.75
X21.0Y-35.25
X21.5Y-18.42
X22.0Y-23.5
X23.0Y-26.5
X23.0Y-38.5
X23.5Y-35.5
X24.25Y-35.0
X24.5Y-38.5
X24.65Y-26.5
X24.75Y-30.0
X25.5Y-36.0
X29.0Y-20.1
X29.0Y-22.0
X31.25Y-31.95
X33.7Y-29.75
X34.0Y-23.562
X34.05Y-27.0
X34.5Y-37.0
X34.95Y-39.5
X35.0Y-43.0
X36.5Y-41.5
X37.4Y-18.5
T3
X19.5Y-18.42
X19.5Y-20.96
X19.5Y-23.5
X20.42Y-46.5
X22.96Y-46.5
X25.5Y-46.5
M30
