%TF.GenerationSoftware,KiCad,Pcbnew,9.0.0*%
%TF.CreationDate,2025-06-21T21:16:28+05:30*%
%TF.ProjectId,csa,6373612e-6b69-4636-9164-5f7063625858,rev?*%
%TF.SameCoordinates,Original*%
%TF.FileFunction,Copper,L2,Inr*%
%TF.FilePolarity,Positive*%
%FSLAX46Y46*%
G04 Gerber Fmt 4.6, Leading zero omitted, Abs format (unit mm)*
G04 Created by KiCad (PCBNEW 9.0.0) date 2025-06-21 21:16:28*
%MOMM*%
%LPD*%
G01*
G04 APERTURE LIST*
%TA.AperFunction,HeatsinkPad*%
%ADD10C,0.500000*%
%TD*%
%TA.AperFunction,ComponentPad*%
%ADD11R,1.700000X1.700000*%
%TD*%
%TA.AperFunction,ComponentPad*%
%ADD12O,1.700000X1.700000*%
%TD*%
%TA.AperFunction,ViaPad*%
%ADD13C,0.600000*%
%TD*%
%TA.AperFunction,Conductor*%
%ADD14C,0.200000*%
%TD*%
G04 APERTURE END LIST*
D10*
%TO.N,GND*%
%TO.C,U2*%
X34000000Y-32250000D03*
X34000000Y-33250000D03*
X34000000Y-34250000D03*
X35000000Y-32250000D03*
X35000000Y-33250000D03*
X35000000Y-34250000D03*
X36000000Y-32250000D03*
X36000000Y-33250000D03*
X36000000Y-34250000D03*
%TD*%
D11*
%TO.N,GND*%
%TO.C,J2*%
X20420000Y-46500000D03*
D12*
%TO.N,Net-(J2-Pin_2)*%
X22960000Y-46500000D03*
%TO.N,unconnected-(J2-Pin_3-Pad3)*%
X25500000Y-46500000D03*
%TD*%
D11*
%TO.N,GND*%
%TO.C,J1*%
X19500000Y-23500000D03*
D12*
%TO.N,Net-(J1-Pin_2)*%
X19500000Y-20960000D03*
%TO.N,+5V*%
X19500000Y-18420000D03*
%TD*%
D13*
%TO.N,GND*%
X37400000Y-18500000D03*
X34500000Y-37000000D03*
X29000000Y-20100000D03*
X20500000Y-43750000D03*
X34950000Y-39500000D03*
X22000000Y-23500000D03*
X21000000Y-35250000D03*
X35000000Y-43000000D03*
X34050000Y-27000000D03*
%TO.N,+3.3V*%
X31250000Y-31950000D03*
X33700000Y-29750000D03*
X36500000Y-41500000D03*
X20000000Y-30250000D03*
%TO.N,Net-(U1-OUT)*%
X24250000Y-35000000D03*
X25500000Y-36000000D03*
%TO.N,+5V*%
X21500000Y-18420000D03*
X23000000Y-38500000D03*
X29000000Y-22000000D03*
X24650000Y-26500000D03*
X34000000Y-23562500D03*
%TO.N,Net-(U1-\u002APD)*%
X23000000Y-26500000D03*
X24750000Y-30000000D03*
%TO.N,Net-(U1-COMP)*%
X23500000Y-35500000D03*
X24500000Y-38500000D03*
%TD*%
D14*
%TO.N,GND*%
X34350000Y-36850000D02*
X34350000Y-34600000D01*
X34500000Y-37000000D02*
X34350000Y-36850000D01*
X34950000Y-37450000D02*
X34950000Y-39500000D01*
X25600000Y-23500000D02*
X29000000Y-20100000D01*
X31000000Y-22100000D02*
X29000000Y-20100000D01*
X22000000Y-23500000D02*
X25600000Y-23500000D01*
X35000000Y-43000000D02*
X35000000Y-39550000D01*
X34625000Y-27575000D02*
X34625000Y-31625000D01*
X29000000Y-20100000D02*
X35800000Y-20100000D01*
X34500000Y-37000000D02*
X34950000Y-37450000D01*
X34350000Y-34600000D02*
X34000000Y-34250000D01*
X35800000Y-20100000D02*
X37400000Y-18500000D01*
X31000000Y-23950000D02*
X31000000Y-22100000D01*
X34050000Y-27000000D02*
X34625000Y-27575000D01*
X35000000Y-39550000D02*
X34950000Y-39500000D01*
X34050000Y-27000000D02*
X31000000Y-23950000D01*
X34625000Y-31625000D02*
X34000000Y-32250000D01*
%TO.N,+5V*%
X22750000Y-38250000D02*
X23000000Y-38500000D01*
X24650000Y-26500000D02*
X22750000Y-28400000D01*
X22750000Y-28400000D02*
X22750000Y-38250000D01*
%TD*%
%TA.AperFunction,Conductor*%
%TO.N,GND*%
G36*
X38942539Y-17020185D02*
G01*
X38988294Y-17072989D01*
X38999500Y-17124500D01*
X38999500Y-47875500D01*
X38979815Y-47942539D01*
X38927011Y-47988294D01*
X38875500Y-47999500D01*
X26038226Y-47999500D01*
X25971187Y-47979815D01*
X25925432Y-47927011D01*
X25915488Y-47857853D01*
X25944513Y-47794297D01*
X25999906Y-47757569D01*
X26018412Y-47751557D01*
X26207816Y-47655051D01*
X26294471Y-47592093D01*
X26379786Y-47530109D01*
X26379788Y-47530106D01*
X26379792Y-47530104D01*
X26530104Y-47379792D01*
X26530106Y-47379788D01*
X26530109Y-47379786D01*
X26655048Y-47207820D01*
X26655047Y-47207820D01*
X26655051Y-47207816D01*
X26751557Y-47018412D01*
X26817246Y-46816243D01*
X26850500Y-46606287D01*
X26850500Y-46393713D01*
X26817246Y-46183757D01*
X26751557Y-45981588D01*
X26655051Y-45792184D01*
X26655049Y-45792181D01*
X26655048Y-45792179D01*
X26530109Y-45620213D01*
X26379786Y-45469890D01*
X26207820Y-45344951D01*
X26018414Y-45248444D01*
X26018413Y-45248443D01*
X26018412Y-45248443D01*
X25816243Y-45182754D01*
X25816241Y-45182753D01*
X25816240Y-45182753D01*
X25654957Y-45157208D01*
X25606287Y-45149500D01*
X25393713Y-45149500D01*
X25345042Y-45157208D01*
X25183760Y-45182753D01*
X24981585Y-45248444D01*
X24792179Y-45344951D01*
X24620213Y-45469890D01*
X24469890Y-45620213D01*
X24344949Y-45792182D01*
X24340484Y-45800946D01*
X24292509Y-45851742D01*
X24224688Y-45868536D01*
X24158553Y-45845998D01*
X24119516Y-45800946D01*
X24115050Y-45792182D01*
X23990109Y-45620213D01*
X23839786Y-45469890D01*
X23667820Y-45344951D01*
X23478414Y-45248444D01*
X23478413Y-45248443D01*
X23478412Y-45248443D01*
X23276243Y-45182754D01*
X23276241Y-45182753D01*
X23276240Y-45182753D01*
X23114957Y-45157208D01*
X23066287Y-45149500D01*
X22853713Y-45149500D01*
X22805042Y-45157208D01*
X22643760Y-45182753D01*
X22441585Y-45248444D01*
X22252179Y-45344951D01*
X22080215Y-45469889D01*
X21966285Y-45583819D01*
X21904962Y-45617303D01*
X21835270Y-45612319D01*
X21779337Y-45570447D01*
X21762422Y-45539470D01*
X21713354Y-45407913D01*
X21713350Y-45407906D01*
X21627190Y-45292812D01*
X21627187Y-45292809D01*
X21512093Y-45206649D01*
X21512086Y-45206645D01*
X21377379Y-45156403D01*
X21377372Y-45156401D01*
X21317844Y-45150000D01*
X20670000Y-45150000D01*
X20670000Y-46066988D01*
X20612993Y-46034075D01*
X20485826Y-46000000D01*
X20354174Y-46000000D01*
X20227007Y-46034075D01*
X20170000Y-46066988D01*
X20170000Y-45150000D01*
X19522155Y-45150000D01*
X19462627Y-45156401D01*
X19462620Y-45156403D01*
X19327913Y-45206645D01*
X19327906Y-45206649D01*
X19212812Y-45292809D01*
X19212809Y-45292812D01*
X19126649Y-45407906D01*
X19126645Y-45407913D01*
X19076403Y-45542620D01*
X19076401Y-45542627D01*
X19070000Y-45602155D01*
X19070000Y-46250000D01*
X19986988Y-46250000D01*
X19954075Y-46307007D01*
X19920000Y-46434174D01*
X19920000Y-46565826D01*
X19954075Y-46692993D01*
X19986988Y-46750000D01*
X19070000Y-46750000D01*
X19070000Y-47397844D01*
X19076401Y-47457372D01*
X19076403Y-47457379D01*
X19126645Y-47592086D01*
X19126649Y-47592093D01*
X19212809Y-47707187D01*
X19212812Y-47707190D01*
X19305042Y-47776234D01*
X19346913Y-47832168D01*
X19351897Y-47901859D01*
X19318411Y-47963182D01*
X19257088Y-47996666D01*
X19230731Y-47999500D01*
X18124500Y-47999500D01*
X18057461Y-47979815D01*
X18011706Y-47927011D01*
X18000500Y-47875500D01*
X18000500Y-41421153D01*
X35699500Y-41421153D01*
X35699500Y-41578846D01*
X35730261Y-41733489D01*
X35730264Y-41733501D01*
X35790602Y-41879172D01*
X35790609Y-41879185D01*
X35878210Y-42010288D01*
X35878213Y-42010292D01*
X35989707Y-42121786D01*
X35989711Y-42121789D01*
X36120814Y-42209390D01*
X36120827Y-42209397D01*
X36266498Y-42269735D01*
X36266503Y-42269737D01*
X36421153Y-42300499D01*
X36421156Y-42300500D01*
X36421158Y-42300500D01*
X36578844Y-42300500D01*
X36578845Y-42300499D01*
X36733497Y-42269737D01*
X36879179Y-42209394D01*
X37010289Y-42121789D01*
X37121789Y-42010289D01*
X37209394Y-41879179D01*
X37269737Y-41733497D01*
X37300500Y-41578842D01*
X37300500Y-41421158D01*
X37300500Y-41421155D01*
X37300499Y-41421153D01*
X37269738Y-41266510D01*
X37269737Y-41266503D01*
X37269735Y-41266498D01*
X37209397Y-41120827D01*
X37209390Y-41120814D01*
X37121789Y-40989711D01*
X37121786Y-40989707D01*
X37010292Y-40878213D01*
X37010288Y-40878210D01*
X36879185Y-40790609D01*
X36879172Y-40790602D01*
X36733501Y-40730264D01*
X36733489Y-40730261D01*
X36578845Y-40699500D01*
X36578842Y-40699500D01*
X36421158Y-40699500D01*
X36421155Y-40699500D01*
X36266510Y-40730261D01*
X36266498Y-40730264D01*
X36120827Y-40790602D01*
X36120814Y-40790609D01*
X35989711Y-40878210D01*
X35989707Y-40878213D01*
X35878213Y-40989707D01*
X35878210Y-40989711D01*
X35790609Y-41120814D01*
X35790602Y-41120827D01*
X35730264Y-41266498D01*
X35730261Y-41266510D01*
X35699500Y-41421153D01*
X18000500Y-41421153D01*
X18000500Y-38329054D01*
X22149498Y-38329054D01*
X22149499Y-38329057D01*
X22174176Y-38421153D01*
X22192527Y-38489636D01*
X22191832Y-38489821D01*
X22199500Y-38528364D01*
X22199500Y-38578846D01*
X22230261Y-38733489D01*
X22230264Y-38733501D01*
X22290602Y-38879172D01*
X22290609Y-38879185D01*
X22378210Y-39010288D01*
X22378213Y-39010292D01*
X22489707Y-39121786D01*
X22489711Y-39121789D01*
X22620814Y-39209390D01*
X22620827Y-39209397D01*
X22766498Y-39269735D01*
X22766503Y-39269737D01*
X22921153Y-39300499D01*
X22921156Y-39300500D01*
X22921158Y-39300500D01*
X23078844Y-39300500D01*
X23078845Y-39300499D01*
X23233497Y-39269737D01*
X23379179Y-39209394D01*
X23510289Y-39121789D01*
X23621789Y-39010289D01*
X23629145Y-38999279D01*
X23646898Y-38972712D01*
X23700510Y-38927906D01*
X23769835Y-38919199D01*
X23832862Y-38949353D01*
X23853102Y-38972712D01*
X23878207Y-39010284D01*
X23878213Y-39010292D01*
X23989707Y-39121786D01*
X23989711Y-39121789D01*
X24120814Y-39209390D01*
X24120827Y-39209397D01*
X24266498Y-39269735D01*
X24266503Y-39269737D01*
X24421153Y-39300499D01*
X24421156Y-39300500D01*
X24421158Y-39300500D01*
X24578844Y-39300500D01*
X24578845Y-39300499D01*
X24733497Y-39269737D01*
X24879179Y-39209394D01*
X25010289Y-39121789D01*
X25121789Y-39010289D01*
X25209394Y-38879179D01*
X25269737Y-38733497D01*
X25300500Y-38578842D01*
X25300500Y-38421158D01*
X25300500Y-38421155D01*
X25300499Y-38421153D01*
X25269738Y-38266510D01*
X25269737Y-38266503D01*
X25230155Y-38170943D01*
X25209397Y-38120827D01*
X25209390Y-38120814D01*
X25121789Y-37989711D01*
X25121786Y-37989707D01*
X25010292Y-37878213D01*
X25010288Y-37878210D01*
X24879185Y-37790609D01*
X24879172Y-37790602D01*
X24733501Y-37730264D01*
X24733489Y-37730261D01*
X24578845Y-37699500D01*
X24578842Y-37699500D01*
X24421158Y-37699500D01*
X24421155Y-37699500D01*
X24266510Y-37730261D01*
X24266498Y-37730264D01*
X24120827Y-37790602D01*
X24120814Y-37790609D01*
X23989711Y-37878210D01*
X23989707Y-37878213D01*
X23878213Y-37989707D01*
X23853102Y-38027289D01*
X23799489Y-38072093D01*
X23730164Y-38080800D01*
X23667137Y-38050645D01*
X23646898Y-38027289D01*
X23621786Y-37989707D01*
X23510289Y-37878210D01*
X23405609Y-37808266D01*
X23360804Y-37754654D01*
X23350500Y-37705164D01*
X23350500Y-36424500D01*
X23370185Y-36357461D01*
X23422989Y-36311706D01*
X23474500Y-36300500D01*
X23578844Y-36300500D01*
X23578845Y-36300499D01*
X23733497Y-36269737D01*
X23879179Y-36209394D01*
X24010289Y-36121789D01*
X24121789Y-36010289D01*
X24209394Y-35879179D01*
X24210275Y-35877049D01*
X24211035Y-35876106D01*
X24212264Y-35873809D01*
X24212699Y-35874041D01*
X24254115Y-35822646D01*
X24320408Y-35800579D01*
X24324838Y-35800500D01*
X24328844Y-35800500D01*
X24328845Y-35800499D01*
X24483497Y-35769737D01*
X24537390Y-35747413D01*
X24606859Y-35739945D01*
X24669338Y-35771220D01*
X24704990Y-35831309D01*
X24706460Y-35886164D01*
X24699500Y-35921157D01*
X24699500Y-36078846D01*
X24730261Y-36233489D01*
X24730264Y-36233501D01*
X24790602Y-36379172D01*
X24790609Y-36379185D01*
X24878210Y-36510288D01*
X24878213Y-36510292D01*
X24989707Y-36621786D01*
X24989711Y-36621789D01*
X25120814Y-36709390D01*
X25120827Y-36709397D01*
X25266498Y-36769735D01*
X25266503Y-36769737D01*
X25421153Y-36800499D01*
X25421156Y-36800500D01*
X25421158Y-36800500D01*
X25578844Y-36800500D01*
X25578845Y-36800499D01*
X25733497Y-36769737D01*
X25879179Y-36709394D01*
X26010289Y-36621789D01*
X26121789Y-36510289D01*
X26209394Y-36379179D01*
X26269737Y-36233497D01*
X26300500Y-36078842D01*
X26300500Y-35921158D01*
X26300500Y-35921157D01*
X26300500Y-35921155D01*
X26300499Y-35921153D01*
X26292150Y-35879179D01*
X26269737Y-35766503D01*
X26261830Y-35747414D01*
X26209397Y-35620827D01*
X26209390Y-35620814D01*
X26121789Y-35489711D01*
X26121786Y-35489707D01*
X26010292Y-35378213D01*
X26010288Y-35378210D01*
X25879185Y-35290609D01*
X25879172Y-35290602D01*
X25733501Y-35230264D01*
X25733489Y-35230261D01*
X25578845Y-35199500D01*
X25578842Y-35199500D01*
X25421158Y-35199500D01*
X25421155Y-35199500D01*
X25266510Y-35230261D01*
X25266499Y-35230264D01*
X25212607Y-35252586D01*
X25143138Y-35260053D01*
X25080659Y-35228777D01*
X25045008Y-35168688D01*
X25043540Y-35113831D01*
X25050500Y-35078843D01*
X25050500Y-34927577D01*
X33675975Y-34927577D01*
X33781236Y-34971178D01*
X33781240Y-34971179D01*
X33926126Y-34999999D01*
X33926129Y-35000000D01*
X34073871Y-35000000D01*
X34073873Y-34999999D01*
X34218760Y-34971179D01*
X34218775Y-34971175D01*
X34324024Y-34927578D01*
X34324024Y-34927577D01*
X34675975Y-34927577D01*
X34781236Y-34971178D01*
X34781240Y-34971179D01*
X34926126Y-34999999D01*
X34926129Y-35000000D01*
X35073871Y-35000000D01*
X35073873Y-34999999D01*
X35218760Y-34971179D01*
X35218775Y-34971175D01*
X35324024Y-34927578D01*
X35324024Y-34927577D01*
X35675975Y-34927577D01*
X35781236Y-34971178D01*
X35781240Y-34971179D01*
X35926126Y-34999999D01*
X35926129Y-35000000D01*
X36073871Y-35000000D01*
X36073873Y-34999999D01*
X36218760Y-34971179D01*
X36218775Y-34971175D01*
X36324024Y-34927578D01*
X36324024Y-34927577D01*
X36000001Y-34603554D01*
X36000000Y-34603554D01*
X35675975Y-34927577D01*
X35324024Y-34927577D01*
X35000001Y-34603554D01*
X35000000Y-34603554D01*
X34675975Y-34927577D01*
X34324024Y-34927577D01*
X34000001Y-34603554D01*
X34000000Y-34603554D01*
X33675975Y-34927577D01*
X25050500Y-34927577D01*
X25050500Y-34921155D01*
X25050499Y-34921153D01*
X25048471Y-34910954D01*
X25019738Y-34766508D01*
X25019737Y-34766507D01*
X25019737Y-34766503D01*
X24991984Y-34699500D01*
X24959397Y-34620827D01*
X24959390Y-34620814D01*
X24871789Y-34489711D01*
X24871786Y-34489707D01*
X24760292Y-34378213D01*
X24760288Y-34378210D01*
X24629185Y-34290609D01*
X24629178Y-34290605D01*
X24618670Y-34286253D01*
X24614680Y-34284600D01*
X24614679Y-34284599D01*
X24483501Y-34230264D01*
X24483489Y-34230261D01*
X24328845Y-34199500D01*
X24328842Y-34199500D01*
X24171158Y-34199500D01*
X24171155Y-34199500D01*
X24016510Y-34230261D01*
X24016498Y-34230264D01*
X23870827Y-34290602D01*
X23870814Y-34290609D01*
X23739711Y-34378210D01*
X23739707Y-34378213D01*
X23628213Y-34489707D01*
X23628210Y-34489711D01*
X23577602Y-34565451D01*
X23523989Y-34610256D01*
X23454664Y-34618963D01*
X23391637Y-34588808D01*
X23354918Y-34529365D01*
X23350500Y-34496560D01*
X23350500Y-34176126D01*
X33250000Y-34176126D01*
X33250000Y-34323873D01*
X33278820Y-34468759D01*
X33278822Y-34468767D01*
X33322421Y-34574024D01*
X33646446Y-34250000D01*
X33646446Y-34249999D01*
X33626556Y-34230109D01*
X33900000Y-34230109D01*
X33900000Y-34269891D01*
X33915224Y-34306645D01*
X33943355Y-34334776D01*
X33980109Y-34350000D01*
X34019891Y-34350000D01*
X34056645Y-34334776D01*
X34084776Y-34306645D01*
X34100000Y-34269891D01*
X34100000Y-34250000D01*
X34353554Y-34250000D01*
X34500000Y-34396446D01*
X34646446Y-34250000D01*
X34626555Y-34230109D01*
X34900000Y-34230109D01*
X34900000Y-34269891D01*
X34915224Y-34306645D01*
X34943355Y-34334776D01*
X34980109Y-34350000D01*
X35019891Y-34350000D01*
X35056645Y-34334776D01*
X35084776Y-34306645D01*
X35100000Y-34269891D01*
X35100000Y-34250000D01*
X35353554Y-34250000D01*
X35500000Y-34396446D01*
X35646446Y-34250000D01*
X35626555Y-34230109D01*
X35900000Y-34230109D01*
X35900000Y-34269891D01*
X35915224Y-34306645D01*
X35943355Y-34334776D01*
X35980109Y-34350000D01*
X36019891Y-34350000D01*
X36056645Y-34334776D01*
X36084776Y-34306645D01*
X36100000Y-34269891D01*
X36100000Y-34249999D01*
X36353554Y-34249999D01*
X36353554Y-34250001D01*
X36677577Y-34574024D01*
X36677578Y-34574024D01*
X36721175Y-34468775D01*
X36721179Y-34468760D01*
X36749999Y-34323873D01*
X36750000Y-34323871D01*
X36750000Y-34176128D01*
X36749999Y-34176126D01*
X36721179Y-34031240D01*
X36721178Y-34031236D01*
X36677577Y-33925975D01*
X36353554Y-34249999D01*
X36100000Y-34249999D01*
X36100000Y-34230109D01*
X36084776Y-34193355D01*
X36056645Y-34165224D01*
X36019891Y-34150000D01*
X35980109Y-34150000D01*
X35943355Y-34165224D01*
X35915224Y-34193355D01*
X35900000Y-34230109D01*
X35626555Y-34230109D01*
X35500000Y-34103554D01*
X35353554Y-34250000D01*
X35100000Y-34250000D01*
X35100000Y-34230109D01*
X35084776Y-34193355D01*
X35056645Y-34165224D01*
X35019891Y-34150000D01*
X34980109Y-34150000D01*
X34943355Y-34165224D01*
X34915224Y-34193355D01*
X34900000Y-34230109D01*
X34626555Y-34230109D01*
X34500000Y-34103554D01*
X34353554Y-34250000D01*
X34100000Y-34250000D01*
X34100000Y-34230109D01*
X34084776Y-34193355D01*
X34056645Y-34165224D01*
X34019891Y-34150000D01*
X33980109Y-34150000D01*
X33943355Y-34165224D01*
X33915224Y-34193355D01*
X33900000Y-34230109D01*
X33626556Y-34230109D01*
X33322421Y-33925974D01*
X33322420Y-33925974D01*
X33278823Y-34031228D01*
X33278820Y-34031240D01*
X33250000Y-34176126D01*
X23350500Y-34176126D01*
X23350500Y-33750000D01*
X33853554Y-33750000D01*
X34000000Y-33896446D01*
X34146446Y-33750000D01*
X34853554Y-33750000D01*
X35000000Y-33896446D01*
X35146446Y-33750000D01*
X35853554Y-33750000D01*
X36000000Y-33896446D01*
X36146446Y-33750000D01*
X36000000Y-33603554D01*
X35853554Y-33750000D01*
X35146446Y-33750000D01*
X35000000Y-33603554D01*
X34853554Y-33750000D01*
X34146446Y-33750000D01*
X34000000Y-33603554D01*
X33853554Y-33750000D01*
X23350500Y-33750000D01*
X23350500Y-33176126D01*
X33250000Y-33176126D01*
X33250000Y-33323873D01*
X33278820Y-33468759D01*
X33278822Y-33468767D01*
X33322421Y-33574024D01*
X33646446Y-33250000D01*
X33646446Y-33249999D01*
X33626556Y-33230109D01*
X33900000Y-33230109D01*
X33900000Y-33269891D01*
X33915224Y-33306645D01*
X33943355Y-33334776D01*
X33980109Y-33350000D01*
X34019891Y-33350000D01*
X34056645Y-33334776D01*
X34084776Y-33306645D01*
X34100000Y-33269891D01*
X34100000Y-33250000D01*
X34353554Y-33250000D01*
X34500000Y-33396446D01*
X34646446Y-33250000D01*
X34626555Y-33230109D01*
X34900000Y-33230109D01*
X34900000Y-33269891D01*
X34915224Y-33306645D01*
X34943355Y-33334776D01*
X34980109Y-33350000D01*
X35019891Y-33350000D01*
X35056645Y-33334776D01*
X35084776Y-33306645D01*
X35100000Y-33269891D01*
X35100000Y-33250000D01*
X35353554Y-33250000D01*
X35500000Y-33396446D01*
X35646446Y-33250000D01*
X35626555Y-33230109D01*
X35900000Y-33230109D01*
X35900000Y-33269891D01*
X35915224Y-33306645D01*
X35943355Y-33334776D01*
X35980109Y-33350000D01*
X36019891Y-33350000D01*
X36056645Y-33334776D01*
X36084776Y-33306645D01*
X36100000Y-33269891D01*
X36100000Y-33249999D01*
X36353554Y-33249999D01*
X36353554Y-33250001D01*
X36677577Y-33574024D01*
X36677578Y-33574024D01*
X36721175Y-33468775D01*
X36721179Y-33468760D01*
X36749999Y-33323873D01*
X36750000Y-33323871D01*
X36750000Y-33176128D01*
X36749999Y-33176126D01*
X36721179Y-33031240D01*
X36721178Y-33031236D01*
X36677577Y-32925975D01*
X36353554Y-33249999D01*
X36100000Y-33249999D01*
X36100000Y-33230109D01*
X36084776Y-33193355D01*
X36056645Y-33165224D01*
X36019891Y-33150000D01*
X35980109Y-33150000D01*
X35943355Y-33165224D01*
X35915224Y-33193355D01*
X35900000Y-33230109D01*
X35626555Y-33230109D01*
X35500000Y-33103554D01*
X35353554Y-33250000D01*
X35100000Y-33250000D01*
X35100000Y-33230109D01*
X35084776Y-33193355D01*
X35056645Y-33165224D01*
X35019891Y-33150000D01*
X34980109Y-33150000D01*
X34943355Y-33165224D01*
X34915224Y-33193355D01*
X34900000Y-33230109D01*
X34626555Y-33230109D01*
X34500000Y-33103554D01*
X34353554Y-33250000D01*
X34100000Y-33250000D01*
X34100000Y-33230109D01*
X34084776Y-33193355D01*
X34056645Y-33165224D01*
X34019891Y-33150000D01*
X33980109Y-33150000D01*
X33943355Y-33165224D01*
X33915224Y-33193355D01*
X33900000Y-33230109D01*
X33626556Y-33230109D01*
X33322421Y-32925974D01*
X33322420Y-32925974D01*
X33278823Y-33031228D01*
X33278820Y-33031240D01*
X33250000Y-33176126D01*
X23350500Y-33176126D01*
X23350500Y-31871153D01*
X30449500Y-31871153D01*
X30449500Y-32028846D01*
X30480261Y-32183489D01*
X30480264Y-32183501D01*
X30540602Y-32329172D01*
X30540609Y-32329185D01*
X30628210Y-32460288D01*
X30628213Y-32460292D01*
X30739707Y-32571786D01*
X30739711Y-32571789D01*
X30870814Y-32659390D01*
X30870827Y-32659397D01*
X31016498Y-32719735D01*
X31016503Y-32719737D01*
X31168644Y-32750000D01*
X31171153Y-32750499D01*
X31171156Y-32750500D01*
X31171158Y-32750500D01*
X31328844Y-32750500D01*
X31328845Y-32750499D01*
X31331354Y-32750000D01*
X33853554Y-32750000D01*
X34000000Y-32896446D01*
X34146446Y-32750000D01*
X34853554Y-32750000D01*
X35000000Y-32896446D01*
X35146446Y-32750000D01*
X35853554Y-32750000D01*
X36000000Y-32896446D01*
X36146446Y-32750000D01*
X36000000Y-32603554D01*
X35853554Y-32750000D01*
X35146446Y-32750000D01*
X35000000Y-32603554D01*
X34853554Y-32750000D01*
X34146446Y-32750000D01*
X34000000Y-32603554D01*
X33853554Y-32750000D01*
X31331354Y-32750000D01*
X31483497Y-32719737D01*
X31629179Y-32659394D01*
X31760289Y-32571789D01*
X31871789Y-32460289D01*
X31959394Y-32329179D01*
X32019737Y-32183497D01*
X32021203Y-32176126D01*
X33250000Y-32176126D01*
X33250000Y-32323873D01*
X33278820Y-32468759D01*
X33278822Y-32468767D01*
X33322421Y-32574024D01*
X33646446Y-32250000D01*
X33646446Y-32249999D01*
X33626556Y-32230109D01*
X33900000Y-32230109D01*
X33900000Y-32269891D01*
X33915224Y-32306645D01*
X33943355Y-32334776D01*
X33980109Y-32350000D01*
X34019891Y-32350000D01*
X34056645Y-32334776D01*
X34084776Y-32306645D01*
X34100000Y-32269891D01*
X34100000Y-32250000D01*
X34353554Y-32250000D01*
X34500000Y-32396446D01*
X34646446Y-32250000D01*
X34626555Y-32230109D01*
X34900000Y-32230109D01*
X34900000Y-32269891D01*
X34915224Y-32306645D01*
X34943355Y-32334776D01*
X34980109Y-32350000D01*
X35019891Y-32350000D01*
X35056645Y-32334776D01*
X35084776Y-32306645D01*
X35100000Y-32269891D01*
X35100000Y-32250000D01*
X35353554Y-32250000D01*
X35500000Y-32396446D01*
X35646446Y-32250000D01*
X35626555Y-32230109D01*
X35900000Y-32230109D01*
X35900000Y-32269891D01*
X35915224Y-32306645D01*
X35943355Y-32334776D01*
X35980109Y-32350000D01*
X36019891Y-32350000D01*
X36056645Y-32334776D01*
X36084776Y-32306645D01*
X36100000Y-32269891D01*
X36100000Y-32249999D01*
X36353554Y-32249999D01*
X36353554Y-32250001D01*
X36677577Y-32574024D01*
X36677578Y-32574024D01*
X36721175Y-32468775D01*
X36721179Y-32468760D01*
X36749999Y-32323873D01*
X36750000Y-32323871D01*
X36750000Y-32176128D01*
X36749999Y-32176126D01*
X36721179Y-32031240D01*
X36721178Y-32031236D01*
X36677577Y-31925975D01*
X36353554Y-32249999D01*
X36100000Y-32249999D01*
X36100000Y-32230109D01*
X36084776Y-32193355D01*
X36056645Y-32165224D01*
X36019891Y-32150000D01*
X35980109Y-32150000D01*
X35943355Y-32165224D01*
X35915224Y-32193355D01*
X35900000Y-32230109D01*
X35626555Y-32230109D01*
X35500000Y-32103554D01*
X35353554Y-32250000D01*
X35100000Y-32250000D01*
X35100000Y-32230109D01*
X35084776Y-32193355D01*
X35056645Y-32165224D01*
X35019891Y-32150000D01*
X34980109Y-32150000D01*
X34943355Y-32165224D01*
X34915224Y-32193355D01*
X34900000Y-32230109D01*
X34626555Y-32230109D01*
X34500000Y-32103554D01*
X34353554Y-32250000D01*
X34100000Y-32250000D01*
X34100000Y-32230109D01*
X34084776Y-32193355D01*
X34056645Y-32165224D01*
X34019891Y-32150000D01*
X33980109Y-32150000D01*
X33943355Y-32165224D01*
X33915224Y-32193355D01*
X33900000Y-32230109D01*
X33626556Y-32230109D01*
X33322421Y-31925974D01*
X33322420Y-31925974D01*
X33278823Y-32031228D01*
X33278820Y-32031240D01*
X33250000Y-32176126D01*
X32021203Y-32176126D01*
X32050024Y-32031236D01*
X32050500Y-32028844D01*
X32050500Y-31871155D01*
X32050499Y-31871153D01*
X32019738Y-31716510D01*
X32019737Y-31716503D01*
X31960057Y-31572421D01*
X31960057Y-31572420D01*
X33675974Y-31572420D01*
X33675974Y-31572421D01*
X34000000Y-31896446D01*
X34000001Y-31896446D01*
X34324024Y-31572421D01*
X34324022Y-31572420D01*
X34675974Y-31572420D01*
X34675974Y-31572421D01*
X35000000Y-31896446D01*
X35000001Y-31896446D01*
X35324024Y-31572421D01*
X35324022Y-31572420D01*
X35675974Y-31572420D01*
X35675974Y-31572421D01*
X36000000Y-31896446D01*
X36000001Y-31896446D01*
X36324024Y-31572421D01*
X36218767Y-31528822D01*
X36218759Y-31528820D01*
X36073872Y-31500000D01*
X35926128Y-31500000D01*
X35781240Y-31528820D01*
X35781228Y-31528823D01*
X35675974Y-31572420D01*
X35324022Y-31572420D01*
X35218767Y-31528822D01*
X35218759Y-31528820D01*
X35073872Y-31500000D01*
X34926128Y-31500000D01*
X34781240Y-31528820D01*
X34781228Y-31528823D01*
X34675974Y-31572420D01*
X34324022Y-31572420D01*
X34218767Y-31528822D01*
X34218759Y-31528820D01*
X34073872Y-31500000D01*
X33926128Y-31500000D01*
X33781240Y-31528820D01*
X33781228Y-31528823D01*
X33675974Y-31572420D01*
X31960057Y-31572420D01*
X31959397Y-31570827D01*
X31959390Y-31570814D01*
X31871789Y-31439711D01*
X31871786Y-31439707D01*
X31760292Y-31328213D01*
X31760288Y-31328210D01*
X31629185Y-31240609D01*
X31629172Y-31240602D01*
X31483501Y-31180264D01*
X31483489Y-31180261D01*
X31328845Y-31149500D01*
X31328842Y-31149500D01*
X31171158Y-31149500D01*
X31171155Y-31149500D01*
X31016510Y-31180261D01*
X31016498Y-31180264D01*
X30870827Y-31240602D01*
X30870814Y-31240609D01*
X30739711Y-31328210D01*
X30739707Y-31328213D01*
X30628213Y-31439707D01*
X30628210Y-31439711D01*
X30540609Y-31570814D01*
X30540602Y-31570827D01*
X30480264Y-31716498D01*
X30480261Y-31716510D01*
X30449500Y-31871153D01*
X23350500Y-31871153D01*
X23350500Y-29921153D01*
X23949500Y-29921153D01*
X23949500Y-30078846D01*
X23980261Y-30233489D01*
X23980264Y-30233501D01*
X24040602Y-30379172D01*
X24040609Y-30379185D01*
X24128210Y-30510288D01*
X24128213Y-30510292D01*
X24239707Y-30621786D01*
X24239711Y-30621789D01*
X24370814Y-30709390D01*
X24370827Y-30709397D01*
X24516498Y-30769735D01*
X24516503Y-30769737D01*
X24671153Y-30800499D01*
X24671156Y-30800500D01*
X24671158Y-30800500D01*
X24828844Y-30800500D01*
X24828845Y-30800499D01*
X24983497Y-30769737D01*
X25129179Y-30709394D01*
X25260289Y-30621789D01*
X25371789Y-30510289D01*
X25459394Y-30379179D01*
X25519737Y-30233497D01*
X25550500Y-30078842D01*
X25550500Y-29921158D01*
X25550500Y-29921155D01*
X25550499Y-29921153D01*
X25519738Y-29766510D01*
X25519737Y-29766503D01*
X25480242Y-29671153D01*
X32899500Y-29671153D01*
X32899500Y-29828846D01*
X32930261Y-29983489D01*
X32930264Y-29983501D01*
X32990602Y-30129172D01*
X32990609Y-30129185D01*
X33078210Y-30260288D01*
X33078213Y-30260292D01*
X33189707Y-30371786D01*
X33189711Y-30371789D01*
X33320814Y-30459390D01*
X33320827Y-30459397D01*
X33466498Y-30519735D01*
X33466503Y-30519737D01*
X33621153Y-30550499D01*
X33621156Y-30550500D01*
X33621158Y-30550500D01*
X33778844Y-30550500D01*
X33778845Y-30550499D01*
X33933497Y-30519737D01*
X34079179Y-30459394D01*
X34210289Y-30371789D01*
X34321789Y-30260289D01*
X34409394Y-30129179D01*
X34469737Y-29983497D01*
X34500500Y-29828842D01*
X34500500Y-29671158D01*
X34500500Y-29671155D01*
X34500499Y-29671153D01*
X34474531Y-29540606D01*
X34469737Y-29516503D01*
X34469735Y-29516498D01*
X34409397Y-29370827D01*
X34409390Y-29370814D01*
X34321789Y-29239711D01*
X34321786Y-29239707D01*
X34210292Y-29128213D01*
X34210288Y-29128210D01*
X34079185Y-29040609D01*
X34079172Y-29040602D01*
X33933501Y-28980264D01*
X33933489Y-28980261D01*
X33778845Y-28949500D01*
X33778842Y-28949500D01*
X33621158Y-28949500D01*
X33621155Y-28949500D01*
X33466510Y-28980261D01*
X33466498Y-28980264D01*
X33320827Y-29040602D01*
X33320814Y-29040609D01*
X33189711Y-29128210D01*
X33189707Y-29128213D01*
X33078213Y-29239707D01*
X33078210Y-29239711D01*
X32990609Y-29370814D01*
X32990602Y-29370827D01*
X32930264Y-29516498D01*
X32930261Y-29516510D01*
X32899500Y-29671153D01*
X25480242Y-29671153D01*
X25462455Y-29628210D01*
X25459397Y-29620827D01*
X25459390Y-29620814D01*
X25371789Y-29489711D01*
X25371786Y-29489707D01*
X25260292Y-29378213D01*
X25260288Y-29378210D01*
X25129185Y-29290609D01*
X25129172Y-29290602D01*
X24983501Y-29230264D01*
X24983489Y-29230261D01*
X24828845Y-29199500D01*
X24828842Y-29199500D01*
X24671158Y-29199500D01*
X24671155Y-29199500D01*
X24516510Y-29230261D01*
X24516498Y-29230264D01*
X24370827Y-29290602D01*
X24370814Y-29290609D01*
X24239711Y-29378210D01*
X24239707Y-29378213D01*
X24128213Y-29489707D01*
X24128210Y-29489711D01*
X24040609Y-29620814D01*
X24040602Y-29620827D01*
X23980264Y-29766498D01*
X23980261Y-29766510D01*
X23949500Y-29921153D01*
X23350500Y-29921153D01*
X23350500Y-28700097D01*
X23370185Y-28633058D01*
X23386819Y-28612416D01*
X23967953Y-28031282D01*
X24664664Y-27334571D01*
X24725985Y-27301088D01*
X24728152Y-27300637D01*
X24728841Y-27300500D01*
X24728842Y-27300500D01*
X24883497Y-27269737D01*
X25029179Y-27209394D01*
X25160289Y-27121789D01*
X25271789Y-27010289D01*
X25359394Y-26879179D01*
X25419737Y-26733497D01*
X25450500Y-26578842D01*
X25450500Y-26421158D01*
X25450500Y-26421155D01*
X25450499Y-26421153D01*
X25419738Y-26266510D01*
X25419737Y-26266503D01*
X25419735Y-26266498D01*
X25359397Y-26120827D01*
X25359390Y-26120814D01*
X25271789Y-25989711D01*
X25271786Y-25989707D01*
X25160292Y-25878213D01*
X25160288Y-25878210D01*
X25029185Y-25790609D01*
X25029172Y-25790602D01*
X24883501Y-25730264D01*
X24883489Y-25730261D01*
X24728845Y-25699500D01*
X24728842Y-25699500D01*
X24571158Y-25699500D01*
X24571155Y-25699500D01*
X24416510Y-25730261D01*
X24416498Y-25730264D01*
X24270827Y-25790602D01*
X24270814Y-25790609D01*
X24139711Y-25878210D01*
X24139707Y-25878213D01*
X24028213Y-25989707D01*
X24028210Y-25989711D01*
X23940609Y-26120814D01*
X23940603Y-26120826D01*
X23939560Y-26123345D01*
X23938660Y-26124460D01*
X23937736Y-26126191D01*
X23937407Y-26126015D01*
X23895718Y-26177747D01*
X23829424Y-26199811D01*
X23761725Y-26182531D01*
X23714115Y-26131393D01*
X23710440Y-26123345D01*
X23709396Y-26120826D01*
X23709390Y-26120814D01*
X23621789Y-25989711D01*
X23621786Y-25989707D01*
X23510292Y-25878213D01*
X23510288Y-25878210D01*
X23379185Y-25790609D01*
X23379172Y-25790602D01*
X23233501Y-25730264D01*
X23233489Y-25730261D01*
X23078845Y-25699500D01*
X23078842Y-25699500D01*
X22921158Y-25699500D01*
X22921155Y-25699500D01*
X22766510Y-25730261D01*
X22766498Y-25730264D01*
X22620827Y-25790602D01*
X22620814Y-25790609D01*
X22489711Y-25878210D01*
X22489707Y-25878213D01*
X22378213Y-25989707D01*
X22378210Y-25989711D01*
X22290609Y-26120814D01*
X22290602Y-26120827D01*
X22230264Y-26266498D01*
X22230261Y-26266510D01*
X22199500Y-26421153D01*
X22199500Y-26578846D01*
X22230261Y-26733489D01*
X22230264Y-26733501D01*
X22290602Y-26879172D01*
X22290609Y-26879185D01*
X22378210Y-27010288D01*
X22378213Y-27010292D01*
X22489707Y-27121786D01*
X22489711Y-27121789D01*
X22620814Y-27209390D01*
X22620827Y-27209397D01*
X22742695Y-27259875D01*
X22766503Y-27269737D01*
X22766511Y-27269738D01*
X22771483Y-27271247D01*
X22829923Y-27309543D01*
X22858382Y-27373354D01*
X22847824Y-27442421D01*
X22823173Y-27477590D01*
X22381286Y-27919478D01*
X22269481Y-28031282D01*
X22269479Y-28031285D01*
X22219361Y-28118094D01*
X22219359Y-28118096D01*
X22190425Y-28168209D01*
X22190424Y-28168210D01*
X22190423Y-28168215D01*
X22149499Y-28320943D01*
X22149499Y-28479057D01*
X22149499Y-28479059D01*
X22149500Y-28489053D01*
X22149500Y-38163330D01*
X22149499Y-38163348D01*
X22149499Y-38329054D01*
X22149498Y-38329054D01*
X18000500Y-38329054D01*
X18000500Y-30171153D01*
X19199500Y-30171153D01*
X19199500Y-30328846D01*
X19230261Y-30483489D01*
X19230264Y-30483501D01*
X19290602Y-30629172D01*
X19290609Y-30629185D01*
X19378210Y-30760288D01*
X19378213Y-30760292D01*
X19489707Y-30871786D01*
X19489711Y-30871789D01*
X19620814Y-30959390D01*
X19620827Y-30959397D01*
X19766498Y-31019735D01*
X19766503Y-31019737D01*
X19921153Y-31050499D01*
X19921156Y-31050500D01*
X19921158Y-31050500D01*
X20078844Y-31050500D01*
X20078845Y-31050499D01*
X20233497Y-31019737D01*
X20379179Y-30959394D01*
X20510289Y-30871789D01*
X20621789Y-30760289D01*
X20709394Y-30629179D01*
X20769737Y-30483497D01*
X20800500Y-30328842D01*
X20800500Y-30171158D01*
X20800500Y-30171155D01*
X20800499Y-30171153D01*
X20769738Y-30016510D01*
X20769737Y-30016503D01*
X20730242Y-29921153D01*
X20709397Y-29870827D01*
X20709390Y-29870814D01*
X20621789Y-29739711D01*
X20621786Y-29739707D01*
X20510292Y-29628213D01*
X20510288Y-29628210D01*
X20379185Y-29540609D01*
X20379172Y-29540602D01*
X20233501Y-29480264D01*
X20233489Y-29480261D01*
X20078845Y-29449500D01*
X20078842Y-29449500D01*
X19921158Y-29449500D01*
X19921155Y-29449500D01*
X19766510Y-29480261D01*
X19766498Y-29480264D01*
X19620827Y-29540602D01*
X19620814Y-29540609D01*
X19489711Y-29628210D01*
X19489707Y-29628213D01*
X19378213Y-29739707D01*
X19378210Y-29739711D01*
X19290609Y-29870814D01*
X19290602Y-29870827D01*
X19230264Y-30016498D01*
X19230261Y-30016510D01*
X19199500Y-30171153D01*
X18000500Y-30171153D01*
X18000500Y-24689269D01*
X18020185Y-24622230D01*
X18072989Y-24576475D01*
X18142147Y-24566531D01*
X18205703Y-24595556D01*
X18223766Y-24614958D01*
X18292809Y-24707187D01*
X18292812Y-24707190D01*
X18407906Y-24793350D01*
X18407913Y-24793354D01*
X18542620Y-24843596D01*
X18542627Y-24843598D01*
X18602155Y-24849999D01*
X18602172Y-24850000D01*
X19250000Y-24850000D01*
X19250000Y-23933012D01*
X19307007Y-23965925D01*
X19434174Y-24000000D01*
X19565826Y-24000000D01*
X19692993Y-23965925D01*
X19750000Y-23933012D01*
X19750000Y-24850000D01*
X20397828Y-24850000D01*
X20397844Y-24849999D01*
X20457372Y-24843598D01*
X20457379Y-24843596D01*
X20592086Y-24793354D01*
X20592093Y-24793350D01*
X20707187Y-24707190D01*
X20707190Y-24707187D01*
X20793350Y-24592093D01*
X20793354Y-24592086D01*
X20843596Y-24457379D01*
X20843598Y-24457372D01*
X20849999Y-24397844D01*
X20850000Y-24397827D01*
X20850000Y-23750000D01*
X19933012Y-23750000D01*
X19965925Y-23692993D01*
X20000000Y-23565826D01*
X20000000Y-23483653D01*
X33199500Y-23483653D01*
X33199500Y-23641346D01*
X33230261Y-23795989D01*
X33230264Y-23796001D01*
X33290602Y-23941672D01*
X33290609Y-23941685D01*
X33378210Y-24072788D01*
X33378213Y-24072792D01*
X33489707Y-24184286D01*
X33489711Y-24184289D01*
X33620814Y-24271890D01*
X33620827Y-24271897D01*
X33766498Y-24332235D01*
X33766503Y-24332237D01*
X33921153Y-24362999D01*
X33921156Y-24363000D01*
X33921158Y-24363000D01*
X34078844Y-24363000D01*
X34078845Y-24362999D01*
X34233497Y-24332237D01*
X34379179Y-24271894D01*
X34510289Y-24184289D01*
X34621789Y-24072789D01*
X34709394Y-23941679D01*
X34769737Y-23795997D01*
X34800500Y-23641342D01*
X34800500Y-23483658D01*
X34800500Y-23483655D01*
X34800499Y-23483653D01*
X34790657Y-23434174D01*
X34769737Y-23329003D01*
X34737013Y-23250000D01*
X34709397Y-23183327D01*
X34709390Y-23183314D01*
X34621789Y-23052211D01*
X34621786Y-23052207D01*
X34510292Y-22940713D01*
X34510288Y-22940710D01*
X34379185Y-22853109D01*
X34379172Y-22853102D01*
X34233501Y-22792764D01*
X34233489Y-22792761D01*
X34078845Y-22762000D01*
X34078842Y-22762000D01*
X33921158Y-22762000D01*
X33921155Y-22762000D01*
X33766510Y-22792761D01*
X33766498Y-22792764D01*
X33620827Y-22853102D01*
X33620814Y-22853109D01*
X33489711Y-22940710D01*
X33489707Y-22940713D01*
X33378213Y-23052207D01*
X33378210Y-23052211D01*
X33290609Y-23183314D01*
X33290602Y-23183327D01*
X33230264Y-23328998D01*
X33230261Y-23329010D01*
X33199500Y-23483653D01*
X20000000Y-23483653D01*
X20000000Y-23434174D01*
X19965925Y-23307007D01*
X19933012Y-23250000D01*
X20850000Y-23250000D01*
X20850000Y-22602172D01*
X20849999Y-22602155D01*
X20843598Y-22542627D01*
X20843596Y-22542620D01*
X20793354Y-22407913D01*
X20793350Y-22407906D01*
X20707190Y-22292812D01*
X20707187Y-22292809D01*
X20592093Y-22206649D01*
X20592088Y-22206646D01*
X20460528Y-22157577D01*
X20432843Y-22136852D01*
X20405042Y-22116299D01*
X20404904Y-22115936D01*
X20404595Y-22115705D01*
X20392524Y-22083343D01*
X20380233Y-22050982D01*
X20380313Y-22050603D01*
X20380178Y-22050241D01*
X20387526Y-22016462D01*
X20394676Y-21982621D01*
X20394975Y-21982218D01*
X20395030Y-21981968D01*
X20415657Y-21954240D01*
X20415739Y-21954156D01*
X20448742Y-21921153D01*
X28199500Y-21921153D01*
X28199500Y-22078846D01*
X28230261Y-22233489D01*
X28230264Y-22233501D01*
X28290602Y-22379172D01*
X28290609Y-22379185D01*
X28378210Y-22510288D01*
X28378213Y-22510292D01*
X28489707Y-22621786D01*
X28489711Y-22621789D01*
X28620814Y-22709390D01*
X28620827Y-22709397D01*
X28747824Y-22762000D01*
X28766503Y-22769737D01*
X28882252Y-22792761D01*
X28921153Y-22800499D01*
X28921156Y-22800500D01*
X28921158Y-22800500D01*
X29078844Y-22800500D01*
X29078845Y-22800499D01*
X29233497Y-22769737D01*
X29379179Y-22709394D01*
X29510289Y-22621789D01*
X29621789Y-22510289D01*
X29709394Y-22379179D01*
X29769737Y-22233497D01*
X29800500Y-22078842D01*
X29800500Y-21921158D01*
X29800500Y-21921155D01*
X29800499Y-21921153D01*
X29769738Y-21766510D01*
X29769737Y-21766503D01*
X29769735Y-21766498D01*
X29709397Y-21620827D01*
X29709390Y-21620814D01*
X29621789Y-21489711D01*
X29621786Y-21489707D01*
X29510292Y-21378213D01*
X29510288Y-21378210D01*
X29379185Y-21290609D01*
X29379172Y-21290602D01*
X29233501Y-21230264D01*
X29233489Y-21230261D01*
X29078845Y-21199500D01*
X29078842Y-21199500D01*
X28921158Y-21199500D01*
X28921155Y-21199500D01*
X28766510Y-21230261D01*
X28766498Y-21230264D01*
X28620827Y-21290602D01*
X28620814Y-21290609D01*
X28489711Y-21378210D01*
X28489707Y-21378213D01*
X28378213Y-21489707D01*
X28378210Y-21489711D01*
X28290609Y-21620814D01*
X28290602Y-21620827D01*
X28230264Y-21766498D01*
X28230261Y-21766510D01*
X28199500Y-21921153D01*
X20448742Y-21921153D01*
X20530104Y-21839792D01*
X20655051Y-21667816D01*
X20751557Y-21478412D01*
X20817246Y-21276243D01*
X20850500Y-21066287D01*
X20850500Y-20853713D01*
X20817246Y-20643757D01*
X20751557Y-20441588D01*
X20655051Y-20252184D01*
X20655049Y-20252181D01*
X20655048Y-20252179D01*
X20530109Y-20080213D01*
X20379786Y-19929890D01*
X20207820Y-19804951D01*
X20207115Y-19804591D01*
X20199054Y-19800485D01*
X20148259Y-19752512D01*
X20131463Y-19684692D01*
X20153999Y-19618556D01*
X20199054Y-19579515D01*
X20207816Y-19575051D01*
X20229789Y-19559086D01*
X20379786Y-19450109D01*
X20379788Y-19450106D01*
X20379792Y-19450104D01*
X20530104Y-19299792D01*
X20530106Y-19299788D01*
X20530109Y-19299786D01*
X20653902Y-19129397D01*
X20655051Y-19127816D01*
X20719567Y-19001195D01*
X20767540Y-18950401D01*
X20835361Y-18933606D01*
X20901496Y-18956143D01*
X20917732Y-18969811D01*
X20989707Y-19041786D01*
X20989711Y-19041789D01*
X21120814Y-19129390D01*
X21120827Y-19129397D01*
X21266498Y-19189735D01*
X21266503Y-19189737D01*
X21421153Y-19220499D01*
X21421156Y-19220500D01*
X21421158Y-19220500D01*
X21578844Y-19220500D01*
X21578845Y-19220499D01*
X21733497Y-19189737D01*
X21879179Y-19129394D01*
X22010289Y-19041789D01*
X22121789Y-18930289D01*
X22209394Y-18799179D01*
X22269737Y-18653497D01*
X22300500Y-18498842D01*
X22300500Y-18341158D01*
X22300500Y-18341155D01*
X22300499Y-18341153D01*
X22269738Y-18186510D01*
X22269737Y-18186503D01*
X22235463Y-18103757D01*
X22209397Y-18040827D01*
X22209390Y-18040814D01*
X22121789Y-17909711D01*
X22121786Y-17909707D01*
X22010292Y-17798213D01*
X22010288Y-17798210D01*
X21879185Y-17710609D01*
X21879172Y-17710602D01*
X21733501Y-17650264D01*
X21733489Y-17650261D01*
X21578845Y-17619500D01*
X21578842Y-17619500D01*
X21421158Y-17619500D01*
X21421155Y-17619500D01*
X21266510Y-17650261D01*
X21266498Y-17650264D01*
X21120827Y-17710602D01*
X21120814Y-17710609D01*
X20989711Y-17798210D01*
X20917732Y-17870189D01*
X20856408Y-17903673D01*
X20786717Y-17898688D01*
X20730783Y-17856817D01*
X20719566Y-17838802D01*
X20655048Y-17712179D01*
X20530109Y-17540213D01*
X20379786Y-17389890D01*
X20207820Y-17264951D01*
X20149008Y-17234985D01*
X20098212Y-17187010D01*
X20081417Y-17119190D01*
X20103954Y-17053055D01*
X20158669Y-17009603D01*
X20205303Y-17000500D01*
X38875500Y-17000500D01*
X38942539Y-17020185D01*
G37*
%TD.AperFunction*%
%TD*%
M02*
