%TF.GenerationSoftware,KiCad,Pcbnew,9.0.0*%
%TF.CreationDate,2025-06-21T21:16:28+05:30*%
%TF.ProjectId,csa,6373612e-6b69-4636-9164-5f7063625858,rev?*%
%TF.SameCoordinates,Original*%
%TF.FileFunction,Copper,L1,Top*%
%TF.FilePolarity,Positive*%
%FSLAX46Y46*%
G04 Gerber Fmt 4.6, Leading zero omitted, Abs format (unit mm)*
G04 Created by KiCad (PCBNEW 9.0.0) date 2025-06-21 21:16:28*
%MOMM*%
%LPD*%
G01*
G04 APERTURE LIST*
G04 Aperture macros list*
%AMRoundRect*
0 Rectangle with rounded corners*
0 $1 Rounding radius*
0 $2 $3 $4 $5 $6 $7 $8 $9 X,Y pos of 4 corners*
0 Add a 4 corners polygon primitive as box body*
4,1,4,$2,$3,$4,$5,$6,$7,$8,$9,$2,$3,0*
0 Add four circle primitives for the rounded corners*
1,1,$1+$1,$2,$3*
1,1,$1+$1,$4,$5*
1,1,$1+$1,$6,$7*
1,1,$1+$1,$8,$9*
0 Add four rect primitives between the rounded corners*
20,1,$1+$1,$2,$3,$4,$5,0*
20,1,$1+$1,$4,$5,$6,$7,0*
20,1,$1+$1,$6,$7,$8,$9,0*
20,1,$1+$1,$8,$9,$2,$3,0*%
G04 Aperture macros list end*
%TA.AperFunction,SMDPad,CuDef*%
%ADD10RoundRect,0.225000X0.225000X0.250000X-0.225000X0.250000X-0.225000X-0.250000X0.225000X-0.250000X0*%
%TD*%
%TA.AperFunction,SMDPad,CuDef*%
%ADD11RoundRect,0.250000X-0.325000X-0.650000X0.325000X-0.650000X0.325000X0.650000X-0.325000X0.650000X0*%
%TD*%
%TA.AperFunction,SMDPad,CuDef*%
%ADD12RoundRect,0.087500X-0.425000X-0.087500X0.425000X-0.087500X0.425000X0.087500X-0.425000X0.087500X0*%
%TD*%
%TA.AperFunction,SMDPad,CuDef*%
%ADD13RoundRect,0.087500X-0.087500X-0.425000X0.087500X-0.425000X0.087500X0.425000X-0.087500X0.425000X0*%
%TD*%
%TA.AperFunction,HeatsinkPad*%
%ADD14C,0.500000*%
%TD*%
%TA.AperFunction,HeatsinkPad*%
%ADD15R,3.150000X3.150000*%
%TD*%
%TA.AperFunction,SMDPad,CuDef*%
%ADD16RoundRect,0.225000X-0.225000X-0.250000X0.225000X-0.250000X0.225000X0.250000X-0.225000X0.250000X0*%
%TD*%
%TA.AperFunction,SMDPad,CuDef*%
%ADD17RoundRect,0.225000X-0.250000X0.225000X-0.250000X-0.225000X0.250000X-0.225000X0.250000X0.225000X0*%
%TD*%
%TA.AperFunction,SMDPad,CuDef*%
%ADD18RoundRect,0.062500X-0.062500X0.425000X-0.062500X-0.425000X0.062500X-0.425000X0.062500X0.425000X0*%
%TD*%
%TA.AperFunction,HeatsinkPad*%
%ADD19R,2.000000X1.200000*%
%TD*%
%TA.AperFunction,SMDPad,CuDef*%
%ADD20RoundRect,0.200000X-0.200000X-0.275000X0.200000X-0.275000X0.200000X0.275000X-0.200000X0.275000X0*%
%TD*%
%TA.AperFunction,SMDPad,CuDef*%
%ADD21RoundRect,0.250000X-0.450000X0.262500X-0.450000X-0.262500X0.450000X-0.262500X0.450000X0.262500X0*%
%TD*%
%TA.AperFunction,SMDPad,CuDef*%
%ADD22RoundRect,0.225000X0.250000X-0.225000X0.250000X0.225000X-0.250000X0.225000X-0.250000X-0.225000X0*%
%TD*%
%TA.AperFunction,ComponentPad*%
%ADD23R,1.700000X1.700000*%
%TD*%
%TA.AperFunction,ComponentPad*%
%ADD24O,1.700000X1.700000*%
%TD*%
%TA.AperFunction,SMDPad,CuDef*%
%ADD25RoundRect,0.200000X-0.275000X0.200000X-0.275000X-0.200000X0.275000X-0.200000X0.275000X0.200000X0*%
%TD*%
%TA.AperFunction,SMDPad,CuDef*%
%ADD26RoundRect,0.250000X0.325000X0.650000X-0.325000X0.650000X-0.325000X-0.650000X0.325000X-0.650000X0*%
%TD*%
%TA.AperFunction,SMDPad,CuDef*%
%ADD27RoundRect,0.150000X0.587500X0.150000X-0.587500X0.150000X-0.587500X-0.150000X0.587500X-0.150000X0*%
%TD*%
%TA.AperFunction,SMDPad,CuDef*%
%ADD28RoundRect,0.218750X0.218750X0.381250X-0.218750X0.381250X-0.218750X-0.381250X0.218750X-0.381250X0*%
%TD*%
%TA.AperFunction,SMDPad,CuDef*%
%ADD29RoundRect,0.200000X0.200000X0.275000X-0.200000X0.275000X-0.200000X-0.275000X0.200000X-0.275000X0*%
%TD*%
%TA.AperFunction,ViaPad*%
%ADD30C,0.600000*%
%TD*%
%TA.AperFunction,Conductor*%
%ADD31C,0.200000*%
%TD*%
G04 APERTURE END LIST*
D10*
%TO.P,C1,1*%
%TO.N,Net-(U1-IN+)*%
X33500000Y-18500000D03*
%TO.P,C1,2*%
%TO.N,Net-(D1-K)*%
X31950000Y-18500000D03*
%TD*%
D11*
%TO.P,C3,1*%
%TO.N,GND*%
X35000000Y-43000000D03*
%TO.P,C3,2*%
%TO.N,+3.3V*%
X37950000Y-43000000D03*
%TD*%
D12*
%TO.P,U2,1,OUT*%
%TO.N,+3.3V*%
X32637500Y-31950000D03*
%TO.P,U2,2*%
%TO.N,N/C*%
X32637500Y-32600000D03*
%TO.P,U2,3,FB*%
%TO.N,unconnected-(U2-FB-Pad3)*%
X32637500Y-33250000D03*
%TO.P,U2,4*%
%TO.N,N/C*%
X32637500Y-33900000D03*
%TO.P,U2,5*%
X32637500Y-34550000D03*
D13*
%TO.P,U2,6*%
X33700000Y-35612500D03*
%TO.P,U2,7,GND*%
%TO.N,GND*%
X34350000Y-35612500D03*
%TO.P,U2,8*%
%TO.N,N/C*%
X35000000Y-35612500D03*
%TO.P,U2,9*%
X35650000Y-35612500D03*
%TO.P,U2,10*%
X36300000Y-35612500D03*
D12*
%TO.P,U2,11*%
X37362500Y-34550000D03*
%TO.P,U2,12*%
X37362500Y-33900000D03*
%TO.P,U2,13,EN*%
%TO.N,Net-(U2-EN)*%
X37362500Y-33250000D03*
%TO.P,U2,14,NR/SS*%
%TO.N,unconnected-(U2-NR{slash}SS-Pad14)*%
X37362500Y-32600000D03*
%TO.P,U2,15,IN*%
%TO.N,Net-(U2-EN)*%
X37362500Y-31950000D03*
D13*
%TO.P,U2,16,IN*%
X36300000Y-30887500D03*
%TO.P,U2,17*%
%TO.N,N/C*%
X35650000Y-30887500D03*
%TO.P,U2,18*%
X35000000Y-30887500D03*
%TO.P,U2,19*%
X34350000Y-30887500D03*
%TO.P,U2,20,OUT*%
%TO.N,+3.3V*%
X33700000Y-30887500D03*
D14*
%TO.P,U2,21,EP*%
%TO.N,GND*%
X34000000Y-32250000D03*
X34000000Y-33250000D03*
X34000000Y-34250000D03*
X35000000Y-32250000D03*
X35000000Y-33250000D03*
D15*
X35000000Y-33250000D03*
D14*
X35000000Y-34250000D03*
X36000000Y-32250000D03*
X36000000Y-33250000D03*
X36000000Y-34250000D03*
%TD*%
D16*
%TO.P,C7,1*%
%TO.N,GND*%
X34950000Y-39500000D03*
%TO.P,C7,2*%
%TO.N,+3.3V*%
X36500000Y-39500000D03*
%TD*%
D17*
%TO.P,Cf1,1*%
%TO.N,Net-(U1-IN-)*%
X27000000Y-31500000D03*
%TO.P,Cf1,2*%
%TO.N,Net-(U1-OUT)*%
X27000000Y-33050000D03*
%TD*%
D18*
%TO.P,U1,1,\u002APD*%
%TO.N,Net-(U1-\u002APD)*%
X24750000Y-31112500D03*
%TO.P,U1,2,FB*%
%TO.N,unconnected-(U1-FB-Pad2)*%
X24250000Y-31112500D03*
%TO.P,U1,3,IN-*%
%TO.N,Net-(U1-IN-)*%
X23750000Y-31112500D03*
%TO.P,U1,4,IN+*%
%TO.N,Net-(U1-IN+)*%
X23250000Y-31112500D03*
%TO.P,U1,5,V-*%
%TO.N,GND*%
X23250000Y-33887500D03*
%TO.P,U1,6,COMP*%
%TO.N,Net-(U1-COMP)*%
X23750000Y-33887500D03*
%TO.P,U1,7,OUT*%
%TO.N,Net-(U1-OUT)*%
X24250000Y-33887500D03*
%TO.P,U1,8,V+*%
%TO.N,+3.3V*%
X24750000Y-33887500D03*
D19*
%TO.P,U1,9,9*%
%TO.N,unconnected-(U1-Pad9)*%
X24000000Y-32500000D03*
%TD*%
D20*
%TO.P,R4,1*%
%TO.N,Net-(U1-\u002APD)*%
X23000000Y-26500000D03*
%TO.P,R4,2*%
%TO.N,+5V*%
X24650000Y-26500000D03*
%TD*%
%TO.P,R5,1*%
%TO.N,+5V*%
X23000000Y-38500000D03*
%TO.P,R5,2*%
%TO.N,Net-(U1-COMP)*%
X24650000Y-38500000D03*
%TD*%
D21*
%TO.P,Rf1,1*%
%TO.N,Net-(U1-IN-)*%
X29000000Y-31500000D03*
%TO.P,Rf1,2*%
%TO.N,Net-(U1-OUT)*%
X29000000Y-33325000D03*
%TD*%
D22*
%TO.P,C5,1*%
%TO.N,GND*%
X21250000Y-33050000D03*
%TO.P,C5,2*%
%TO.N,+3.3V*%
X21250000Y-31500000D03*
%TD*%
D23*
%TO.P,J2,1,Pin_1*%
%TO.N,GND*%
X20420000Y-46500000D03*
D24*
%TO.P,J2,2,Pin_2*%
%TO.N,Net-(J2-Pin_2)*%
X22960000Y-46500000D03*
%TO.P,J2,3,Pin_3*%
%TO.N,unconnected-(J2-Pin_3-Pad3)*%
X25500000Y-46500000D03*
%TD*%
D25*
%TO.P,R3,1*%
%TO.N,Net-(U1-OUT)*%
X28000000Y-38000000D03*
%TO.P,R3,2*%
%TO.N,Net-(C2-Pad2)*%
X28000000Y-39650000D03*
%TD*%
D26*
%TO.P,C6,1*%
%TO.N,Net-(U2-EN)*%
X37000000Y-27000000D03*
%TO.P,C6,2*%
%TO.N,GND*%
X34050000Y-27000000D03*
%TD*%
D22*
%TO.P,C2,1*%
%TO.N,Net-(J2-Pin_2)*%
X28000000Y-43050000D03*
%TO.P,C2,2*%
%TO.N,Net-(C2-Pad2)*%
X28000000Y-41500000D03*
%TD*%
%TO.P,C4,1*%
%TO.N,GND*%
X19500000Y-33050000D03*
%TO.P,C4,2*%
%TO.N,+3.3V*%
X19500000Y-31500000D03*
%TD*%
D23*
%TO.P,J1,1,Pin_1*%
%TO.N,GND*%
X19500000Y-23500000D03*
D24*
%TO.P,J1,2,Pin_2*%
%TO.N,Net-(J1-Pin_2)*%
X19500000Y-20960000D03*
%TO.P,J1,3,Pin_3*%
%TO.N,+5V*%
X19500000Y-18420000D03*
%TD*%
D27*
%TO.P,D1,1,A*%
%TO.N,+5V*%
X29000000Y-22000000D03*
%TO.P,D1,2,A*%
%TO.N,GND*%
X29000000Y-20100000D03*
%TO.P,D1,3,K*%
%TO.N,Net-(D1-K)*%
X27125000Y-21050000D03*
%TD*%
D28*
%TO.P,L1,1,1*%
%TO.N,Net-(U2-EN)*%
X36125000Y-23562500D03*
%TO.P,L1,2,2*%
%TO.N,+5V*%
X34000000Y-23562500D03*
%TD*%
D29*
%TO.P,R2,1*%
%TO.N,GND*%
X37400000Y-18500000D03*
%TO.P,R2,2*%
%TO.N,Net-(U1-IN+)*%
X35750000Y-18500000D03*
%TD*%
%TO.P,R1,1*%
%TO.N,Net-(D1-K)*%
X24500000Y-21000000D03*
%TO.P,R1,2*%
%TO.N,Net-(J1-Pin_2)*%
X22850000Y-21000000D03*
%TD*%
D30*
%TO.N,GND*%
X37400000Y-18500000D03*
X34500000Y-37000000D03*
X29000000Y-20100000D03*
X20500000Y-43750000D03*
X34950000Y-39500000D03*
X22000000Y-23500000D03*
X21000000Y-35250000D03*
X35000000Y-43000000D03*
X34050000Y-27000000D03*
%TO.N,+3.3V*%
X31250000Y-31950000D03*
X33700000Y-29750000D03*
X36500000Y-41500000D03*
X20000000Y-30250000D03*
%TO.N,Net-(U1-OUT)*%
X24250000Y-35000000D03*
X25500000Y-36000000D03*
%TO.N,+5V*%
X21500000Y-18420000D03*
X23000000Y-38500000D03*
X29000000Y-22000000D03*
X24650000Y-26500000D03*
X34000000Y-23562500D03*
%TO.N,Net-(U1-\u002APD)*%
X23000000Y-26500000D03*
X24750000Y-30000000D03*
%TO.N,Net-(U1-COMP)*%
X23500000Y-35500000D03*
X24500000Y-38500000D03*
%TD*%
D31*
%TO.N,Net-(D1-K)*%
X25750000Y-19000000D02*
X26250000Y-18500000D01*
X27075000Y-21000000D02*
X27125000Y-21050000D01*
X25750000Y-20500000D02*
X25750000Y-19000000D01*
X26250000Y-18500000D02*
X31950000Y-18500000D01*
X25250000Y-21000000D02*
X25750000Y-20500000D01*
X25500000Y-21000000D02*
X27075000Y-21000000D01*
X24500000Y-21000000D02*
X25250000Y-21000000D01*
X25250000Y-21000000D02*
X25500000Y-21000000D01*
%TO.N,Net-(U1-IN+)*%
X26250000Y-28750000D02*
X24250000Y-28750000D01*
X34500000Y-18500000D02*
X35750000Y-18500000D01*
X23250000Y-29750000D02*
X23250000Y-31112500D01*
X34500000Y-18500000D02*
X34500000Y-20500000D01*
X24250000Y-28750000D02*
X23250000Y-29750000D01*
X33500000Y-18500000D02*
X34500000Y-18500000D01*
X34500000Y-20500000D02*
X26250000Y-28750000D01*
%TO.N,Net-(C2-Pad2)*%
X28000000Y-39650000D02*
X28000000Y-41500000D01*
%TO.N,Net-(J2-Pin_2)*%
X28000000Y-43050000D02*
X24200000Y-43050000D01*
X22960000Y-44290000D02*
X22960000Y-46500000D01*
X24200000Y-43050000D02*
X22960000Y-44290000D01*
%TO.N,GND*%
X20125000Y-34875000D02*
X20500000Y-35250000D01*
X20500000Y-43750000D02*
X20420000Y-43830000D01*
X34500000Y-35762500D02*
X34350000Y-35612500D01*
X21000000Y-35250000D02*
X22000000Y-35250000D01*
X22750000Y-35250000D02*
X23250000Y-34750000D01*
X19500000Y-33050000D02*
X19500000Y-34250000D01*
X22000000Y-23500000D02*
X19500000Y-23500000D01*
X22000000Y-35250000D02*
X22750000Y-35250000D01*
X20420000Y-43830000D02*
X20420000Y-46500000D01*
X20500000Y-35250000D02*
X21000000Y-35250000D01*
X23250000Y-34750000D02*
X23250000Y-33887500D01*
X21250000Y-33050000D02*
X21250000Y-34500000D01*
X19500000Y-34250000D02*
X20125000Y-34875000D01*
X21250000Y-34500000D02*
X22000000Y-35250000D01*
X34500000Y-37000000D02*
X34500000Y-35762500D01*
%TO.N,+3.3V*%
X23849943Y-36250000D02*
X23250000Y-36250000D01*
X21250000Y-30750000D02*
X20750000Y-30250000D01*
X21250000Y-31500000D02*
X21250000Y-30750000D01*
X24851000Y-35248943D02*
X23849943Y-36250000D01*
X18250000Y-34750000D02*
X18250000Y-30750000D01*
X18750000Y-30250000D02*
X19000000Y-30250000D01*
X20750000Y-30250000D02*
X20000000Y-30250000D01*
X36500000Y-41550000D02*
X37950000Y-43000000D01*
X19000000Y-30250000D02*
X19500000Y-30750000D01*
X33700000Y-29750000D02*
X33700000Y-30887500D01*
X36500000Y-39500000D02*
X36500000Y-41500000D01*
X23250000Y-36250000D02*
X19750000Y-36250000D01*
X18250000Y-30750000D02*
X18750000Y-30250000D01*
X19500000Y-30750000D02*
X19500000Y-31500000D01*
X20000000Y-30250000D02*
X19000000Y-30250000D01*
X31250000Y-31950000D02*
X32637500Y-31950000D01*
X36500000Y-41500000D02*
X36500000Y-41550000D01*
X24851000Y-33988500D02*
X24851000Y-35248943D01*
X24750000Y-33887500D02*
X24851000Y-33988500D01*
X19750000Y-36250000D02*
X18250000Y-34750000D01*
%TO.N,Net-(U2-EN)*%
X38500000Y-24750000D02*
X38500000Y-26250000D01*
X37750000Y-27000000D02*
X37000000Y-27000000D01*
X38500000Y-33250000D02*
X37362500Y-33250000D01*
X37000000Y-27000000D02*
X37300000Y-27300000D01*
X36125000Y-23562500D02*
X37312500Y-23562500D01*
X38750000Y-33000000D02*
X38500000Y-33250000D01*
X38500000Y-26250000D02*
X37750000Y-27000000D01*
X36300000Y-29950000D02*
X37000000Y-29250000D01*
X36300000Y-30887500D02*
X37362500Y-31950000D01*
X37000000Y-29250000D02*
X37000000Y-27000000D01*
X37362500Y-31950000D02*
X38450000Y-31950000D01*
X36300000Y-30887500D02*
X36300000Y-29950000D01*
X38750000Y-32250000D02*
X38750000Y-33000000D01*
X38450000Y-31950000D02*
X38750000Y-32250000D01*
X37312500Y-23562500D02*
X38500000Y-24750000D01*
%TO.N,Net-(U1-OUT)*%
X25500000Y-36000000D02*
X27400000Y-36000000D01*
X28000000Y-36500000D02*
X28000000Y-38000000D01*
X27500000Y-36000000D02*
X28000000Y-36500000D01*
X25400000Y-36000000D02*
X25500000Y-36000000D01*
X27400000Y-36000000D02*
X29000000Y-34400000D01*
X25400000Y-36000000D02*
X27000000Y-34400000D01*
X27000000Y-34400000D02*
X27000000Y-33050000D01*
X27400000Y-36000000D02*
X27500000Y-36000000D01*
X29000000Y-34400000D02*
X29000000Y-33325000D01*
X24250000Y-33887500D02*
X24250000Y-35000000D01*
%TO.N,Net-(U1-IN-)*%
X23750000Y-30050000D02*
X23750000Y-31112500D01*
X27000000Y-31500000D02*
X27000000Y-30200000D01*
X28200000Y-29400000D02*
X26200000Y-29400000D01*
X29000000Y-30200000D02*
X28200000Y-29400000D01*
X26200000Y-29400000D02*
X24400000Y-29400000D01*
X27000000Y-30200000D02*
X26200000Y-29400000D01*
X29000000Y-31500000D02*
X29000000Y-30200000D01*
X24400000Y-29400000D02*
X23750000Y-30050000D01*
%TO.N,+5V*%
X21500000Y-18420000D02*
X19500000Y-18420000D01*
%TO.N,Net-(J1-Pin_2)*%
X19500000Y-20960000D02*
X22810000Y-20960000D01*
X22810000Y-20960000D02*
X22850000Y-21000000D01*
%TO.N,Net-(U1-\u002APD)*%
X24750000Y-30250000D02*
X24750000Y-30000000D01*
X24750000Y-31500000D02*
X24750000Y-30250000D01*
X24750000Y-31112500D02*
X24750000Y-31500000D01*
%TO.N,Net-(U1-COMP)*%
X23651000Y-34916100D02*
X23500000Y-35067100D01*
X23651000Y-34749057D02*
X23651000Y-34916100D01*
X23500000Y-35067100D02*
X23500000Y-35500000D01*
X23750000Y-34650057D02*
X23651000Y-34749057D01*
X23750000Y-33887500D02*
X23750000Y-34650057D01*
%TD*%
M02*
